<svg width="17" height="18" viewBox="0 0 17 18" fill="none" xmlns="http://www.w3.org/2000/svg">
<path fill-rule="evenodd" clip-rule="evenodd" d="M11.3823 1.50857C10.7636 1.50857 10.1693 1.75721 9.73043 2.20125L2.63877 9.37622C1.91014 10.1134 1.5 11.1142 1.5 12.1587C1.5 13.2032 1.91014 14.204 2.63877 14.9412C3.36725 15.6782 4.35432 16.0914 5.3826 16.0914C6.41088 16.0914 7.39795 15.6782 8.12643 14.9412L15.2181 7.76618C15.5101 7.47073 15.985 7.4693 16.2787 7.76299C16.5725 8.05667 16.5739 8.53426 16.2819 8.8297L9.19026 16.0047C8.18117 17.0256 6.81161 17.6 5.3826 17.6C3.95359 17.6 2.58403 17.0256 1.57494 16.0047C0.566011 14.9839 0 13.6004 0 12.1587C0 10.717 0.566011 9.33348 1.57494 8.3127L8.6666 1.13772C9.38609 0.409779 10.3629 0 11.3823 0C12.4018 0 13.3786 0.409779 14.0981 1.13772C14.8174 1.86551 15.2207 2.85165 15.2207 3.87897C15.2207 4.90629 14.8174 5.89243 14.0981 6.62022L6.99871 13.7952C6.99862 13.7953 6.99881 13.7951 6.99871 13.7952C6.56884 14.23 5.98466 14.4753 5.37488 14.4753C4.76497 14.4753 4.18095 14.2301 3.75106 13.7952C3.32131 13.3604 3.08068 12.7716 3.08068 12.1587C3.08068 11.5457 3.32131 10.957 3.75106 10.5222L10.3029 3.90122C10.595 3.60594 11.0699 3.60479 11.3635 3.89865C11.6571 4.19251 11.6582 4.6701 11.3661 4.96537L4.81488 11.5857C4.66544 11.7369 4.58068 11.9429 4.58068 12.1587C4.58068 12.3744 4.66544 12.5805 4.81488 12.7317C4.96418 12.8827 5.1657 12.9667 5.37488 12.9667C5.58406 12.9667 5.78559 12.8827 5.93488 12.7317L13.0343 5.55669C13.4733 5.1125 13.7207 4.50909 13.7207 3.87897C13.7207 3.24885 13.4733 2.64544 13.0343 2.20125C12.5954 1.75721 12.0011 1.50857 11.3823 1.50857Z" fill="#818386"/>
</svg>
