<svg width="40" height="40" viewBox="0 0 40 40" fill="none" xmlns="http://www.w3.org/2000/svg">
<path d="M0 18.1333C0 11.15 0 7.65836 1.57184 5.09335C2.45137 3.65809 3.65809 2.45137 5.09335 1.57184C7.65836 0 11.15 0 18.1333 0H21.8667C28.85 0 32.3416 0 34.9067 1.57184C36.3419 2.45137 37.5486 3.65809 38.4282 5.09335C40 7.65836 40 11.15 40 18.1333V21.8667C40 28.85 40 32.3416 38.4282 34.9067C37.5486 36.3419 36.3419 37.5486 34.9067 38.4282C32.3416 40 28.85 40 21.8667 40H18.1333C11.15 40 7.65836 40 5.09335 38.4282C3.65809 37.5486 2.45137 36.3419 1.57184 34.9067C0 32.3416 0 28.85 0 21.8667V18.1333Z" fill="#EDEDF0"/>
<path d="M20.1054 33.3962C20.0703 33.3962 20.0351 33.4314 19.9999 33.4314C19.9648 33.4314 19.9296 33.3962 19.8945 33.3962H20.1054Z" fill="#84DBFF"/>
<path fill-rule="evenodd" clip-rule="evenodd" d="M36.6753 37.0712C36.1366 37.5823 35.5442 38.0376 34.9067 38.4282C32.3416 40.0001 28.85 40.0001 21.8667 40.0001H18.1333C11.15 40.0001 7.65835 40.0001 5.09334 38.4282C4.45723 38.0384 3.86602 37.5844 3.32828 37.0746C6.23125 33.7175 10.3164 31.9912 13.7065 31.1111C13.4252 33.4316 14.6206 36.5256 14.6558 36.4552C15.8864 33.6425 20 33.3964 20 33.3964C20 33.3964 24.1136 33.6425 25.309 36.4552C25.3441 36.5256 26.5747 33.4316 26.2583 31.1111C29.6798 31.9909 33.7959 33.7164 36.6753 37.0712Z" fill="#37CFD1"/>
<path d="M25.0278 28.9315C25.0278 28.9315 25.0278 28.9315 25.0278 28.9667C25.0278 29.3182 24.852 31.5684 20.1055 33.3615H19.8946C15.1481 31.5684 14.9723 29.3182 14.9723 28.9667C14.9723 28.9315 14.9723 28.9315 14.9723 28.9315C14.9723 28.4744 15.0778 28.0174 15.1832 27.5603C16.5544 29.2831 18.2069 30.4433 20 30.4433C21.7931 30.4433 23.4456 29.2831 24.8168 27.5603C24.9223 28.0174 25.0278 28.4744 25.0278 28.9315Z" fill="#FFD7A3"/>
<path d="M25.0277 28.9316C25.0277 28.9316 25.2739 31.4631 20 33.432C20 33.432 24.1136 33.6781 25.309 36.4908C25.3793 36.5611 27.735 30.4435 25.0277 28.9316Z" fill="#148A99"/>
<path d="M14.9722 28.9316C12.265 30.4435 14.6206 36.5611 14.6909 36.4557C15.9215 33.6429 20 33.3968 20 33.3968C14.7261 31.4631 14.9722 28.9316 14.9722 28.9316Z" fill="#148A99"/>
<path d="M27.3833 20.0364C27.0668 22.2163 26.1175 24.2555 24.5354 25.8025C24.219 26.1189 23.9377 26.365 23.5861 26.6111L23.0235 24.818H16.9762L16.4137 26.6111C15.2886 25.7673 12.9329 23.4117 12.8978 21.1966C11.9133 8.5746 21.582 11.2467 21.582 11.2467C28.0864 10.7896 27.8755 16.5205 27.3833 20.0364Z" fill="#FFE1B2"/>
<path d="M28.6841 22.3218C28.1919 23.1305 27.5239 23.693 26.8911 23.9039C27.1372 23.3414 27.3481 22.7437 27.5239 22.146C27.5239 22.146 27.5239 22.146 27.5239 22.1108C27.6645 21.5835 27.8052 21.0561 27.9458 20.5287H27.9107C28.0513 20.0013 28.1919 19.4739 28.2974 18.9465C28.438 18.9465 28.5787 19.0169 28.7193 19.0872C29.4928 19.5794 29.4576 21.0209 28.6841 22.3218Z" fill="#FFE1B2"/>
<path d="M13.1088 23.9037C12.4759 23.6927 11.8079 23.1302 11.3157 22.3215C10.507 21.0207 10.507 19.5791 11.2805 19.1221C11.3508 19.0869 11.386 19.0518 11.4563 19.0518C11.8782 20.7042 12.3704 21.9348 12.4759 22.1809C12.6517 22.7434 12.8627 23.3412 13.1088 23.9037Z" fill="#FFE1B2"/>
<path d="M23.8324 7.73058C24.1136 4.49596 18.9804 4.70691 18.9804 4.70691C11.2103 5.832 10.3665 13.0747 10.3665 13.0747L11.4213 11.809C9.76878 15.4304 12.2651 21.6535 12.476 22.1457C13.7769 26.4703 16.6599 30.4433 20 30.4433C23.3401 30.4433 26.2232 26.4703 27.524 22.1457C27.524 22.1457 27.524 22.1457 27.524 22.1106C27.6647 21.5832 27.8053 21.0558 27.9108 20.5284H27.8756C28.5788 17.7157 29.3523 14.8678 29.3523 14.8678C31.3564 4.77723 23.8324 7.73058 23.8324 7.73058ZM27.3834 20.0362C27.067 22.2161 26.1177 24.2553 24.5355 25.8023C24.2191 26.1187 23.9027 26.3648 23.5862 26.6109L23.0237 24.853H16.9764L16.4138 26.6461C15.2887 25.8023 14.3394 24.642 13.5659 23.306C13.2144 22.6028 13.0034 21.8645 12.8979 21.2316C11.9135 8.60955 21.5822 11.2816 21.5822 11.2816C28.0866 10.7894 27.8756 16.5203 27.3834 20.0362Z" fill="#324A5E"/>
<path d="M23.8324 7.73058C24.1136 4.49596 18.9804 4.70691 18.9804 4.70691C11.2103 5.832 10.3665 13.0747 10.3665 13.0747L11.4213 11.809C9.76878 15.4304 12.2651 21.6535 12.476 22.1457C13.7769 26.4703 16.6599 30.4433 20 30.4433C23.3401 30.4433 26.2232 26.4703 27.524 22.1457C27.524 22.1457 27.524 22.1457 27.524 22.1106C27.6647 21.5832 27.8053 21.0558 27.9108 20.5284H27.8756C28.5788 17.7157 29.3523 14.8678 29.3523 14.8678C31.3564 4.77723 23.8324 7.73058 23.8324 7.73058ZM27.3834 20.0362C27.067 22.2161 26.1177 24.2553 24.5355 25.8023C24.2191 26.1187 23.9027 26.3648 23.5862 26.6109L23.0237 24.853H16.9764L16.4138 26.6461C15.2887 25.8023 14.3394 24.642 13.5659 23.306C13.2144 22.6028 13.0034 21.8645 12.8979 21.2316C11.9135 8.60955 21.5822 11.2816 21.5822 11.2816C28.0866 10.7894 27.8756 16.5203 27.3834 20.0362Z" fill="#324A5E"/>
<path d="M23.8324 7.73058C24.1136 4.49596 18.9804 4.70691 18.9804 4.70691C11.2103 5.832 10.3665 13.0747 10.3665 13.0747L11.4213 11.809C9.76878 15.4304 12.2651 21.6535 12.476 22.1457C13.7769 26.4703 16.6599 30.4433 20 30.4433C23.3401 30.4433 26.2232 26.4703 27.524 22.1457C27.524 22.1457 27.524 22.1457 27.524 22.1106C27.6647 21.5832 27.8053 21.0558 27.9108 20.5284H27.8756C28.5788 17.7157 29.3523 14.8678 29.3523 14.8678C31.3564 4.77723 23.8324 7.73058 23.8324 7.73058ZM27.3834 20.0362C27.067 22.2161 26.1177 24.2553 24.5355 25.8023C24.2191 26.1187 23.9027 26.3648 23.5862 26.6109L23.0237 24.853H16.9764L16.4138 26.6461C15.2887 25.8023 12.9331 23.4466 12.8979 21.2316C11.9135 8.60955 21.5822 11.2816 21.5822 11.2816C28.0866 10.7894 27.8756 16.5203 27.3834 20.0362Z" fill="#1F0951"/>
<path d="M17.5387 26.0486C18.1364 26.7166 19.0154 27.1737 19.9999 27.1737C20.9843 27.1737 21.8633 26.7518 22.461 26.0486H17.5387Z" fill="white"/>
</svg>
