<svg width="18" height="18" viewBox="0 0 18 18" fill="none" xmlns="http://www.w3.org/2000/svg">
<path fill-rule="evenodd" clip-rule="evenodd" d="M8.8 0C3.93984 0 0 3.93984 0 8.8C0 13.6601 3.93984 17.6 8.8 17.6C13.6592 17.6 17.6 13.6601 17.6 8.79909C17.6 3.93984 13.6592 0 8.8 0ZM8.8 15.7658C4.95275 15.7658 1.83334 12.6473 1.83334 8.79909C1.83334 4.95091 4.95184 1.83334 8.8 1.83334C12.6473 1.83334 15.7676 4.95184 15.7676 8.8C15.7676 12.6481 12.6473 15.7658 8.8 15.7658ZM7.88334 6.96666C7.88334 7.85309 7.26825 8.57084 6.50925 8.57084C5.74934 8.57084 5.13334 7.85309 5.13334 6.96666C5.13334 6.08025 5.74934 5.3625 6.50834 5.3625C7.26734 5.3625 7.88334 6.08025 7.88334 6.96666ZM11.0916 8.57084C11.8516 8.57084 12.4666 7.85309 12.4666 6.96666C12.4666 6.08025 11.8506 5.3625 11.0916 5.3625C10.3327 5.3625 9.71666 6.08116 9.71666 6.96666C9.71666 7.85216 10.3327 8.57084 11.0916 8.57084ZM11.8552 10.318C12.0321 9.98525 12.4465 9.85416 12.7793 10.0247C13.1147 10.197 13.2504 10.6031 13.0817 10.9395C13.0369 11.0302 11.9405 13.1532 8.80091 13.1532C5.66225 13.1532 4.56409 11.0311 4.51825 10.9404C4.34866 10.6003 4.48616 10.1878 4.82534 10.0173C5.16634 9.84775 5.57334 9.98434 5.74566 10.3189C5.78416 10.3913 6.55416 11.7782 8.80091 11.7782C11.0586 11.7782 11.8241 10.3785 11.8552 10.318Z" fill="#818386"/>
</svg>
