<svg width="0" height="0" class="hidden">
  <symbol fill="none" xmlns="http://www.w3.org/2000/svg" viewBox="0 0 48 48" id="dashboard">
    <path fill-rule="evenodd" clip-rule="evenodd" d="M35.6 26H26v9.6h9.6V26zM26 22.4h9.6a3.6 3.6 0 013.6 3.6v9.6a3.6 3.6 0 01-3.6 3.6H26a3.6 3.6 0 01-3.6-3.6V26a3.6 3.6 0 013.6-3.6zm-12-18H4.4V14H14V4.4zm21.6 0H26V14h9.6V4.4zM14 26H4.4v9.6H14V26zM14 .8H4.4A3.6 3.6 0 00.8 4.4V14a3.6 3.6 0 003.6 3.6H14a3.6 3.6 0 003.6-3.6V4.4A3.6 3.6 0 0014 .8zm21.6 0H26a3.6 3.6 0 00-3.6 3.6V14a3.6 3.6 0 003.6 3.6h9.6a3.6 3.6 0 003.6-3.6V4.4A3.6 3.6 0 0035.6.8zM4.4 22.4H14a3.6 3.6 0 013.6 3.6v9.6a3.6 3.6 0 01-3.6 3.6H4.4a3.6 3.6 0 01-3.6-3.6V26a3.6 3.6 0 013.6-3.6z" fill="#fff"></path>
  </symbol>
  <symbol fill="none" xmlns="http://www.w3.org/2000/svg" viewBox="0 0 48 48" id="cart">
    <path fill-rule="evenodd" clip-rule="evenodd" d="M4.2 5.592a1.8 1.8 0 000 3.6h4.852l1.279 6.392c.008.048.017.096.029.144L13 28.922v.002a4.964 4.964 0 004.945 3.994h15.344a4.963 4.963 0 004.944-3.996l.003-.013 2.53-13.271a1.8 1.8 0 00-1.768-2.137H13.585l-1.293-6.462a1.8 1.8 0 00-1.765-1.447H4.2zm12.331 22.626l-2.225-11.117h22.517L34.7 28.226a1.363 1.363 0 01-1.362 1.093H17.895a1.363 1.363 0 01-1.363-1.098v-.003zm.323 11.028a.219.219 0 100-.438.219.219 0 000 .438zm-3.381-.219a3.381 3.381 0 116.762 0 3.381 3.381 0 01-6.762 0zm20.78.219a.219.219 0 100-.438.219.219 0 000 .438zm-3.38-.219a3.381 3.381 0 116.761 0 3.381 3.381 0 01-6.762 0z" fill="#fff"></path>
  </symbol>
  <symbol fill="none" xmlns="http://www.w3.org/2000/svg" viewBox="0 0 48 48" id="calendar">
    <path fill-rule="evenodd" clip-rule="evenodd" d="M10.158.8a1.8 1.8 0 011.8 1.8v1.21H18.2V2.6a1.8 1.8 0 013.6 0v1.21h6V2.6a1.8 1.8 0 013.6 0v1.21h1.2a6.6 6.6 0 016.6 6.6v7.424a1.8 1.8 0 01-3.6 0V10.41a3 3 0 00-3-3h-1.2v1.194a1.8 1.8 0 11-3.6 0V7.41h-6v1.194a1.8 1.8 0 11-3.6 0V7.41h-6.242v1.194a1.8 1.8 0 11-3.6 0V7.41H7.4a3 3 0 00-3 3v22.2a3 3 0 003 3h10.425a1.8 1.8 0 010 3.6H7.4a6.6 6.6 0 01-6.6-6.6v-22.2a6.6 6.6 0 016.6-6.6h.958V2.6a1.8 1.8 0 011.8-1.8zm1.73 15.73a1.68 1.68 0 11-3.36 0 1.68 1.68 0 013.36 0zm4.8 1.68a1.68 1.68 0 100-3.36 1.68 1.68 0 000 3.36zm-4.8 4.871a1.68 1.68 0 11-3.36 0 1.68 1.68 0 013.36 0zm4.8 1.68a1.68 1.68 0 100-3.36 1.68 1.68 0 000 3.36zm-4.8 4.824a1.68 1.68 0 11-3.36 0 1.68 1.68 0 013.36 0zm4.8 1.68a1.68 1.68 0 100-3.36 1.68 1.68 0 000 3.36zM24.92 16.53a1.68 1.68 0 11-3.36 0 1.68 1.68 0 013.36 0zm4.8 1.68a1.68 1.68 0 100-3.36 1.68 1.68 0 000 3.36z" fill="#fff"></path>
    <path fill-rule="evenodd" clip-rule="evenodd" d="M35.6 29.61a6 6 0 11-12 0 6 6 0 0112 0zm3.6 0a9.6 9.6 0 11-19.2 0 9.6 9.6 0 0119.2 0zm-9.12-2.4a1.2 1.2 0 10-2.4 0v3.6a1.2 1.2 0 001.2 1.2h2.88a1.2 1.2 0 000-2.4h-1.68v-2.4z" fill="#fff"></path>
  </symbol>
  <symbol fill="none" xmlns="http://www.w3.org/2000/svg" viewBox="0 0 48 48" id="mail">
    <path fill-rule="evenodd" clip-rule="evenodd" d="M8.603 12.885A1.69 1.69 0 0110.08 12h27.84c.633 0 1.191.36 1.477.885L24 23.663 8.603 12.885zm-3.803.774V34.56a5.29 5.29 0 005.28 5.28h27.84a5.29 5.29 0 005.28-5.28c0-2.322.007-4.645.015-6.968.014-4.637.029-9.274-.015-13.91v-.051c-.027-2.835-2.388-5.231-5.28-5.231H10.08a5.29 5.29 0 00-5.28 5.26zm34.8 3.478V34.56c0 .92-.76 1.68-1.68 1.68H10.08c-.92 0-1.68-.76-1.68-1.68V17.137l14.568 10.198a1.8 1.8 0 002.064 0L39.6 17.137z" fill="#fff"></path>
  </symbol>
  <symbol fill="none" xmlns="http://www.w3.org/2000/svg" viewBox="0 0 48 48" id="chat">
    <path fill-rule="evenodd" clip-rule="evenodd" d="M9.005 13.805a2.067 2.067 0 011.462-.605h27.068a2.067 2.067 0 012.067 2.067v19.335a2.067 2.067 0 01-2.066 2.067H14.333a1.8 1.8 0 00-1.273.527l-4.66 4.66v-26.59c0-.547.218-1.073.605-1.46zM10.467 9.6A5.667 5.667 0 004.8 15.267v30.935a1.8 1.8 0 003.073 1.273l7.206-7.206h22.456a5.667 5.667 0 005.667-5.667V15.267A5.667 5.667 0 0037.536 9.6h-27.07zm3.315 9.6a1.8 1.8 0 000 3.6H34.2a1.8 1.8 0 000-3.6H13.782zm.018 7.201a1.8 1.8 0 100 3.6h13.207a1.8 1.8 0 100-3.6H13.8z" fill="#fff"></path>
  </symbol>
  <symbol fill="none" xmlns="http://www.w3.org/2000/svg" viewBox="0 0 48 48" id="tasks">
    <path fill-rule="evenodd" clip-rule="evenodd" d="M12.2.8C5.904.8.8 5.904.8 12.2v15.6c0 6.296 5.104 11.4 11.4 11.4h15.6c6.296 0 11.4-5.104 11.4-11.4V12.2C39.2 5.904 34.096.8 27.8.8H12.2zM4.4 12.2a7.8 7.8 0 017.8-7.8h15.6a7.8 7.8 0 017.8 7.8v15.6a7.8 7.8 0 01-7.8 7.8H12.2a7.8 7.8 0 01-7.8-7.8V12.2zm24.206 4.782a1.8 1.8 0 10-2.422-2.664l-8.359 7.6-3.14-2.854a1.8 1.8 0 10-2.42 2.663l4.35 3.955a1.8 1.8 0 002.42 0l9.57-8.7z" fill="#fff"></path>
  </symbol>
  <symbol fill="none" xmlns="http://www.w3.org/2000/svg" viewBox="0 0 48 48" id="project">
    <path fill-rule="evenodd" clip-rule="evenodd" d="M23.195 4.99a1.8 1.8 0 011.61 0l17.4 8.7a1.8 1.8 0 010 3.22l-17.4 8.7a1.8 1.8 0 01-1.61 0l-17.4-8.7a1.8 1.8 0 010-3.22l17.4-8.7zM10.625 15.3L24 21.988 37.375 15.3 24 8.612 10.625 15.3zM4.99 31.895a1.8 1.8 0 012.415-.805L24 39.388l16.595-8.298a1.8 1.8 0 111.61 3.22l-17.4 8.7a1.8 1.8 0 01-1.61 0l-17.4-8.7a1.8 1.8 0 01-.805-2.415zm2.415-9.505a1.8 1.8 0 10-1.61 3.22l17.4 8.7a1.8 1.8 0 001.61 0l17.4-8.7a1.8 1.8 0 00-1.61-3.22L24 30.688 7.405 22.39z" fill="#fff"></path>
  </symbol>
  <symbol fill="none" xmlns="http://www.w3.org/2000/svg" viewBox="0 0 48 48" id="folder">
    <path fill-rule="evenodd" clip-rule="evenodd" d="M10.08 10.8a1.68 1.68 0 00-1.68 1.68v6.9h31.2V17.7a1.68 1.68 0 00-1.68-1.68H22.26a1.8 1.8 0 01-1.498-.801L17.817 10.8H10.08zM39.6 22.98H8.4v13.86a1.68 1.68 0 001.68 1.68h27.84a1.68 1.68 0 001.68-1.68V22.98zM6.346 8.746A5.28 5.28 0 0110.08 7.2h8.7a1.8 1.8 0 011.498.802l2.945 4.418H37.92a5.28 5.28 0 015.28 5.28v19.14a5.28 5.28 0 01-5.28 5.28H10.08a5.28 5.28 0 01-5.28-5.28V12.48c0-1.4.556-2.743 1.546-3.734z" fill="#fff"></path>
  </symbol>
  <symbol fill="none" xmlns="http://www.w3.org/2000/svg" viewBox="0 0 48 48" id="text">
    <path fill-rule="evenodd" clip-rule="evenodd" d="M12.48 4.8H26.4a1.8 1.8 0 011.273.527l10.44 10.44a1.8 1.8 0 01.527 1.273v20.88c0 2.876-2.404 5.28-5.28 5.28H12.48c-2.876 0-5.28-2.404-5.28-5.28V10.08c0-2.876 2.404-5.28 5.28-5.28zm0 3.6c-.891 0-1.68.789-1.68 1.68v27.84c0 .891.789 1.68 1.68 1.68h20.88c.891 0 1.68-.789 1.68-1.68V18.84H26.4a1.8 1.8 0 01-1.8-1.8V8.4H12.48zm15.72 2.546l4.294 4.294H28.2v-4.294zM14.16 18.78a1.8 1.8 0 011.8-1.8h3.48a1.8 1.8 0 110 3.6h-3.48a1.8 1.8 0 01-1.8-1.8zm1.8 5.16a1.8 1.8 0 000 3.6h13.92a1.8 1.8 0 100-3.6H15.96zm0 6.959a1.8 1.8 0 000 3.6h13.92a1.8 1.8 0 100-3.6H15.96z" fill="#fff"></path>
  </symbol>
  <symbol fill="none" xmlns="http://www.w3.org/2000/svg" viewBox="0 0 48 48" id="contacts">
    <path fill-rule="evenodd" clip-rule="evenodd" d="M11.547 9.147A2.55 2.55 0 0113.35 8.4h21.69v22.5H13.35a6.14 6.14 0 00-2.55.554V10.95c0-.676.269-1.325.747-1.803zM10.8 37.05a2.55 2.55 0 002.55 2.55h21.69v-5.1H13.35a2.55 2.55 0 00-2.55 2.55zm27.84-4.35V6.6a1.8 1.8 0 00-1.8-1.8H13.35a6.15 6.15 0 00-6.15 6.15v26.1a6.15 6.15 0 006.15 6.15h23.49a1.8 1.8 0 001.8-1.8v-8.7z" fill="#fff"></path>
  </symbol>
  <symbol fill="none" xmlns="http://www.w3.org/2000/svg" viewBox="0 0 24 15" id="arrow">
    <path fill-rule="evenodd" clip-rule="evenodd" d="M23.06.94a1.5 1.5 0 010 2.12L12 14.122.94 3.061A1.5 1.5 0 113.06.939L12 9.88 20.94.94a1.5 1.5 0 012.12 0z" fill="#fff"></path>
  </symbol>
  <symbol fill="none" xmlns="http://www.w3.org/2000/svg" viewBox="0 0 18 18" id="search">
    <path fill-rule="evenodd" clip-rule="evenodd" d="M2.05 7.9a5.85 5.85 0 1111.7 0 5.85 5.85 0 01-11.7 0zM7.9.55a7.35 7.35 0 104.64 13.05l3.904 3.905a.75.75 0 101.06-1.06l-3.903-3.905A7.35 7.35 0 007.9.55z" fill="#818386"></path>
  </symbol>
  <symbol fill="none" xmlns="http://www.w3.org/2000/svg" viewBox="0 0 12 12" id="plus">
    <path fill-rule="evenodd" clip-rule="evenodd" d="M7 1a1 1 0 00-2 0v4H1a1 1 0 000 2h4v4a1 1 0 102 0V7h4a1 1 0 100-2H7V1z" fill="#818386"></path>
  </symbol>
  <symbol fill="none" xmlns="http://www.w3.org/2000/svg" viewBox="0 0 40 40" id="#2">
    <path d="M0 18.133C0 11.15 0 7.658 1.572 5.093a10.667 10.667 0 013.521-3.521C7.658 0 11.15 0 18.133 0h3.734c6.983 0 10.475 0 13.04 1.572a10.668 10.668 0 013.521 3.521C40 7.658 40 11.15 40 18.133v3.734c0 6.983 0 10.475-1.572 13.04a10.669 10.669 0 01-3.521 3.521C32.342 40 28.85 40 21.867 40h-3.734c-6.983 0-10.475 0-13.04-1.572a10.668 10.668 0 01-3.521-3.521C0 32.342 0 28.85 0 21.867v-3.734z" fill="#FDC8A6"></path>
    <path d="M25.077 6.281l-3.949 21.436 2.82.564c5.97-4.371 8.533-22 1.129-22zm0 0c-.987-.599-6.197-2.121-10.154 0-4.865 2.61-9.12 11.94-2.256 21.436.01.014 5.077-.564 5.077-.564l7.333-20.872z" fill="#4E1E30"></path>
    <path fill-rule="evenodd" clip-rule="evenodd" d="M25.077 39.992c-.981.008-2.047.008-3.21.008h-3.734c-1.163 0-2.229 0-3.21-.008V28.623c1.123-.847 1.128-2.249 1.128-3.539v-1.316h7.898v1.318h.03c0 1.278.004 2.668 1.098 3.518v11.389z" fill="#FFD7A3"></path>
    <path fill-rule="evenodd" clip-rule="evenodd" d="M24.513 39.996C23.69 40 22.81 40 21.867 40h-5.251v-4.826c1.026.28 2.171.44 3.384.44 1.68 0 3.233-.301 4.513-.812v5.194z" fill="#FF9054"></path>
    <path d="M24.513 31.102c.206.056.391.086.564.1v-2.598c-1.094-.85-1.098-2.24-1.098-3.518v-1.35l-6.235.032-1.693.564c1.129 1.27 4.584 5.712 8.462 6.77z" fill="#FDC88E"></path>
    <path d="M27.898 16.435c0 4.517-4.493 10.154-7.898 10.154-3.404 0-7.897-5.637-7.897-10.154S15.64 10.23 20 10.23c4.362 0 7.898 1.688 7.898 6.205z" fill="#FFE1B2"></path>
    <path d="M21.128 7.41c-.317 0-1.346.356-2.187.668l-.07-.104-.316.249c-.468.178-.811.315-.811.315l.132.22c-2.141 1.687-7.026 5.546-7.466 5.985-.564.564 3.385 14.956 3.385 6.77 0-6.84 3.8-8.195 7.333-9.026 1.599-.377 2.069-1.317 2.257-2.257.188-.94-1.693-2.82-2.257-2.82z" fill="#4E1E30"></path>
    <path d="M22.82 10.794c1.035 3.714 3.103 5.394 5.042 5.888 1.063.27.6-3.067.6-3.067s-1.505-3.855-1.693-3.949c-.188-.094-1.692-3.385-1.692-3.385l-3.385 2.821 1.129 1.692z" fill="#4E1E30"></path>
    <path fill-rule="evenodd" clip-rule="evenodd" d="M18.313 40h-.18c-6.767 0-10.256 0-12.8-1.43v-2.956a6.205 6.205 0 016.206-6.205h.188c2.21 0 3.287-.603 3.816-1.461L18.313 40zm16.354-1.431c-2.544 1.43-6.032 1.43-12.8 1.43h-.18l2.77-12.052c.529.859 1.606 1.462 3.817 1.462h.188a6.205 6.205 0 016.205 6.205v2.955z" fill="#37CFD1"></path>
    <path d="M27.057 16.487c.923-.212 1.528.24 1.528 1.128 0 1.175-1.241 4.054-2.546 2.256-1.305-1.798 1.018-3.384 1.018-3.384z" fill="#FFE1B2"></path>
  </symbol>
  <symbol fill="none" xmlns="http://www.w3.org/2000/svg" viewBox="0 0 40 40" id="#3">
    <g clip-path="url(#clip0)">
      <path d="M0 18.133C0 11.15 0 7.658 1.572 5.093a10.667 10.667 0 013.521-3.521C7.658 0 11.15 0 18.133 0h3.734c6.983 0 10.475 0 13.04 1.572a10.668 10.668 0 013.521 3.521C40 7.658 40 11.15 40 18.133v3.734c0 6.983 0 10.475-1.572 13.04a10.669 10.669 0 01-3.521 3.521C32.342 40 28.85 40 21.867 40h-3.734c-6.983 0-10.475 0-13.04-1.572a10.668 10.668 0 01-3.521-3.521C0 32.342 0 28.85 0 21.867v-3.734z" fill="#FF9054"></path>
      <path d="M12.926 26.864c-1.767-4.457-5.478-8.49-.808-16.616 1.923-3.346 4.86-5.553 7.895-4.806 3.035-.747 5.973 1.46 7.896 4.806 4.67 8.125.959 12.159-.808 16.616l-7.087.017-7.088-.017z" fill="#1F0951"></path>
      <path fill-rule="evenodd" clip-rule="evenodd" d="M33.222 39.2c-2.43.8-5.78.8-11.355.8h-3.734c-5.576 0-8.926 0-11.355-.8.248-.97.483-2.035.688-2.962.272-1.228.49-2.213.61-2.407 1.512-2.44 3.389-3.309 5.038-4.072 2.062-.954 3.77-1.743 3.967-5.233 0 0 1.57 1.203 2.86 1.191 1.288-.011 2.976-1.27 2.976-1.27.199 3.499 1.912 4.308 3.978 5.284 1.647.778 3.52 1.663 5.029 4.1.12.194.337 1.178.61 2.405.204.927.44 1.994.688 2.964z" fill="#FFD7A3"></path>
      <path d="M23.008 25.334a9.326 9.326 0 01-.091-.888s-1.688 1.26-2.977 1.271c-1.288.012-2.859-1.191-2.859-1.191-.018.323-.05.622-.093.902l.099.078v.005c.099.086 1.607 1.383 2.853 1.37 1.246.013 2.755-1.284 2.854-1.37v-.005c.073-.056.144-.114.214-.172z" fill="#F0C290"></path>
      <path d="M17.087 24.53c.099.075 1.608 1.198 2.854 1.187 1.245.012 2.754-1.112 2.853-1.187 1.883-1.098 3.429-4.335 3.08-7.843-.286-2.874-3.395 1.34-5.56-4.59-3.064 6.42-5.975 2.623-6.307 5.055-.365 2.68 1.14 6.054 3.08 7.378z" fill="#FFE1B2"></path>
      <path fill-rule="evenodd" clip-rule="evenodd" d="M33.257 39.188C30.825 40 27.469 40 21.867 40h-3.734c-5.603 0-8.959 0-11.391-.812.292-1.302.568-2.958.8-4.343.236-1.417.425-2.549.534-2.724.845-1.359 2.59-1.84 4.216-2.29.857-.236 1.681-.464 2.322-.806 3.44 11.033 7.741 10.319 10.628-.153.624.335 1.488.568 2.392.811 1.782.48 3.72 1.003 4.29 2.438.065.165.214 1.03.41 2.171.254 1.475.587 3.412.923 4.896zM14.614 29.025zm0 0z" fill="#3A63DE"></path>
      <path d="M15.85 27.984c-.12 3.258.434 7.874 4.09 9.054-3.442.144-5.675-4.816-8.22-6.114l4.13-2.94zm8.384 0c.127 3.258-.455 7.874-4.294 9.054 3.614.144 5.96-4.816 8.63-6.114l-4.336-2.94z" fill="#fff"></path>
    </g>
    <defs>
      <clipPath id="clip0">
        <path fill="#fff" d="M0 0h40v40H0z"></path>
      </clipPath>
    </defs>
  </symbol>
  <symbol fill="none" xmlns="http://www.w3.org/2000/svg" viewBox="0 0 40 40" id="#4">
    <path d="M0 18.133C0 11.15 0 7.658 1.572 5.093a10.667 10.667 0 013.521-3.521C7.658 0 11.15 0 18.133 0h3.734c6.983 0 10.475 0 13.04 1.572a10.668 10.668 0 013.521 3.521C40 7.658 40 11.15 40 18.133v3.734c0 6.983 0 10.475-1.572 13.04a10.669 10.669 0 01-3.521 3.521C32.342 40 28.85 40 21.867 40h-3.734c-6.983 0-10.475 0-13.04-1.572a10.668 10.668 0 01-3.521-3.521C0 32.342 0 28.85 0 21.867v-3.734z" fill="#EDEDF0"></path>
    <path d="M20.105 33.396c-.035 0-.07.035-.105.035-.035 0-.07-.035-.105-.035h.21z" fill="#84DBFF"></path>
    <path fill-rule="evenodd" clip-rule="evenodd" d="M36.675 37.071c-.538.511-1.13.967-1.768 1.357C32.342 40 28.85 40 21.867 40h-3.734c-6.983 0-10.475 0-13.04-1.572a10.663 10.663 0 01-1.765-1.353c2.903-3.358 6.988-5.084 10.379-5.964-.282 2.32.914 5.415.949 5.344C15.886 33.642 20 33.396 20 33.396s4.114.246 5.309 3.06c.035.07 1.266-3.024.95-5.345 3.42.88 7.537 2.605 10.416 5.96z" fill="#37CFD1"></path>
    <path d="M25.028 28.931v.036c0 .351-.176 2.601-4.922 4.395h-.211c-4.747-1.794-4.923-4.044-4.923-4.395v-.035c0-.458.106-.915.211-1.372 1.371 1.723 3.024 2.883 4.817 2.883 1.793 0 3.446-1.16 4.817-2.883.105.457.21.914.21 1.372z" fill="#FFD7A3"></path>
    <path d="M25.028 28.932s.246 2.531-5.028 4.5c0 0 4.114.246 5.309 3.059.07.07 2.426-6.047-.281-7.56zm-10.056 0c-2.707 1.512-.351 7.63-.281 7.524 1.23-2.813 5.309-3.06 5.309-3.06-5.274-1.933-5.028-4.464-5.028-4.464z" fill="#148A99"></path>
    <path d="M27.383 20.036c-.316 2.18-1.265 4.22-2.848 5.766a6.803 6.803 0 01-.949.81l-.563-1.794h-6.047l-.562 1.793c-1.125-.844-3.481-3.2-3.516-5.414-.985-12.622 8.684-9.95 8.684-9.95 6.504-.457 6.293 5.273 5.801 8.79zm1.301 2.286c-.492.809-1.16 1.371-1.793 1.582.246-.563.457-1.16.633-1.758v-.035l.422-1.582h-.035c.14-.528.28-1.055.386-1.582.141 0 .282.07.422.14.774.492.739 1.934-.035 3.235zm-15.575 1.582c-.633-.211-1.301-.774-1.793-1.582-.809-1.301-.809-2.743-.036-3.2.07-.035.106-.07.176-.07a23.939 23.939 0 001.02 3.129c.176.562.387 1.16.633 1.723z" fill="#FFE1B2"></path>
    <path d="M23.832 7.73c.282-3.234-4.852-3.023-4.852-3.023-7.77 1.125-8.614 8.368-8.614 8.368l1.055-1.266c-1.652 3.621.844 9.845 1.055 10.337 1.3 4.324 4.184 8.297 7.524 8.297s6.223-3.973 7.524-8.297v-.035c.14-.528.281-1.055.387-1.583h-.035c.703-2.812 1.476-5.66 1.476-5.66 2.004-10.09-5.52-7.137-5.52-7.137zm3.551 12.306c-.316 2.18-1.265 4.22-2.848 5.766a9.676 9.676 0 01-.949.809l-.562-1.758h-6.048l-.562 1.793c-1.125-.844-2.075-2.004-2.848-3.34a7.468 7.468 0 01-.668-2.074c-.984-12.622 8.684-9.95 8.684-9.95 6.505-.493 6.294 5.238 5.801 8.754z" fill="#324A5E"></path>
    <path d="M23.832 7.73c.282-3.234-4.852-3.023-4.852-3.023-7.77 1.125-8.614 8.368-8.614 8.368l1.055-1.266c-1.652 3.621.844 9.845 1.055 10.337 1.3 4.324 4.184 8.297 7.524 8.297s6.223-3.973 7.524-8.297v-.035c.14-.528.281-1.055.387-1.583h-.035c.703-2.812 1.476-5.66 1.476-5.66 2.004-10.09-5.52-7.137-5.52-7.137zm3.551 12.306c-.316 2.18-1.265 4.22-2.848 5.766a9.676 9.676 0 01-.949.809l-.562-1.758h-6.048l-.562 1.793c-1.125-.844-2.075-2.004-2.848-3.34a7.468 7.468 0 01-.668-2.074c-.984-12.622 8.684-9.95 8.684-9.95 6.505-.493 6.294 5.238 5.801 8.754z" fill="#324A5E"></path>
    <path d="M23.832 7.73c.282-3.234-4.852-3.023-4.852-3.023-7.77 1.125-8.614 8.368-8.614 8.368l1.055-1.266c-1.652 3.621.844 9.845 1.055 10.337 1.3 4.324 4.184 8.297 7.524 8.297s6.223-3.973 7.524-8.297v-.035c.14-.528.281-1.055.387-1.583h-.035c.703-2.812 1.476-5.66 1.476-5.66 2.004-10.09-5.52-7.137-5.52-7.137zm3.551 12.306c-.316 2.18-1.265 4.22-2.848 5.766a9.676 9.676 0 01-.949.809l-.562-1.758h-6.048l-.562 1.793c-1.125-.844-3.48-3.2-3.516-5.414-.984-12.622 8.684-9.95 8.684-9.95 6.505-.493 6.294 5.238 5.801 8.754z" fill="#1F0951"></path>
    <path d="M17.539 26.049c.597.668 1.476 1.125 2.46 1.125a3.2 3.2 0 002.462-1.125h-4.922z" fill="#fff"></path>
  </symbol>
  <symbol fill="none" xmlns="http://www.w3.org/2000/svg" viewBox="0 0 40 40" id="#5">
    <path d="M0 18.133C0 11.15 0 7.658 1.572 5.093a10.667 10.667 0 013.521-3.521C7.658 0 11.15 0 18.133 0h3.734c6.983 0 10.475 0 13.04 1.572a10.668 10.668 0 013.521 3.521C40 7.658 40 11.15 40 18.133v3.734c0 6.983 0 10.475-1.572 13.04a10.669 10.669 0 01-3.521 3.521C32.342 40 28.85 40 21.867 40h-3.734c-6.983 0-10.475 0-13.04-1.572a10.668 10.668 0 01-3.521-3.521C0 32.342 0 28.85 0 21.867v-3.734z" fill="#FFBB5D"></path>
    <path d="M25.696 31.608v-4.243h-10.91v4.243l5.455 4.849 5.455-4.85z" fill="#FFD7A3"></path>
    <path fill-rule="evenodd" clip-rule="evenodd" d="M36 37.66c-.347.278-.712.535-1.093.768C32.342 40 28.85 40 21.867 40h-3.734c-6.983 0-10.475 0-13.04-1.572a10.654 10.654 0 01-.612-.404v-2.071c0-1.126.774-2.103 1.87-2.36l7.5-1.765c.213-.05.4-.156.552-.299l5.838 3.716 6.075-3.544c.097.055.201.1.315.127l7.5 1.765A2.424 2.424 0 0136 35.953v1.707z" fill="#8B63E7"></path>
    <path d="M14.786 27.365v4.477c6.872 2.476 10.91-3.721 10.91-3.721v-.756h-10.91z" fill="#F0C290"></path>
    <path d="M12.361 13.424l.528 11.62a3.637 3.637 0 001.451 2.745l2.506 1.88c.63.471 1.395.727 2.182.727h2.425a3.63 3.63 0 002.182-.728l2.506-1.88a3.637 3.637 0 001.451-2.744l.528-11.62H12.361z" fill="#FFE1B2"></path>
    <path fill-rule="evenodd" clip-rule="evenodd" d="M21.622 40h-2.765l.247-3.543h2.273L21.622 40z" fill="#5B5D6E"></path>
    <path d="M21.756 35.245h-3.03v1.14c0 .375.303.678.677.678h1.675a.678.678 0 00.678-.678v-1.14z" fill="#515262"></path>
    <path d="M14.7 30.258l5.54 4.986s-1.55.784-3.466 2.362a.778.778 0 01-1.204-.272l-2.603-5.726.824-1.235a.606.606 0 01.91-.115zm11.081 0l-5.54 4.986s1.551.784 3.466 2.362a.778.778 0 001.204-.272l2.603-5.726-.823-1.235a.606.606 0 00-.91-.115z" fill="#fff"></path>
    <path d="M23.915 9.408l.569 4.016c2.593.519 2.967 4.59 3.021 5.752.01.211.077.415.192.592l.99 1.536s-.34-2.539 1.212-4.243c0 0 .532-10.077-5.984-7.653z" fill="#4E1E30"></path>
    <path d="M29.294 21.045l-.684 2.737a.729.729 0 01-1.43-.086l-.35-2.8a1.255 1.255 0 112.464.149z" fill="#FFE1B2"></path>
    <path d="M12.942 8.322l.896.613c-4.053 2.992-3.295 8.126-3.295 8.126 1.212 1.212 1.212 4.243 1.212 4.243l1.212-1.213s-.468-3.501 1.818-4.849c2.122-1.25 3.978-.606 5.872-.606 5.077 0 6.497-1.913 6.251-4.243-.127-1.205-1.97-3.716-6.667-3.637-1.896.033-5.455.607-7.3 1.566z" fill="#66273F"></path>
    <path d="M12.588 14.106s-.644-2.538 1.25-5.171c-4.053 2.993-3.295 8.126-3.295 8.126 1.212 1.212 1.212 4.243 1.212 4.243l1.212-1.212s-.468-3.502 1.818-4.85c2.122-1.25 3.978-.606 5.872-.606a14.9 14.9 0 002.186-.15c-3.91.131-6.214-2.83-10.255-.38z" fill="#4E1E30"></path>
    <path d="M11.187 21.045l.684 2.737a.729.729 0 001.43-.086l.35-2.8a1.255 1.255 0 10-2.464.149z" fill="#FFE1B2"></path>
  </symbol>
  <symbol fill="none" xmlns="http://www.w3.org/2000/svg" viewBox="0 0 40 40" id="#6">
    <path d="M0 18.133C0 11.15 0 7.658 1.572 5.093a10.667 10.667 0 013.521-3.521C7.658 0 11.15 0 18.133 0h3.734c6.983 0 10.475 0 13.04 1.572a10.668 10.668 0 013.521 3.521C40 7.658 40 11.15 40 18.133v3.734c0 6.983 0 10.475-1.572 13.04a10.669 10.669 0 01-3.521 3.521C32.342 40 28.85 40 21.867 40h-3.734c-6.983 0-10.475 0-13.04-1.572a10.668 10.668 0 01-3.521-3.521C0 32.342 0 28.85 0 21.867v-3.734z" fill="#37CFD1"></path>
    <path d="M27.676 13.674v5.733a10.338 10.338 0 01-.023.631c-.002.044-.006.087-.01.13-.002.027-.003.051-.007.078a1.787 1.787 0 01-.015.143c-.008.09-.02.18-.032.27-.002.022-.006.045-.01.068-.005.045-.013.09-.02.135v.006l-.034.196c-.017.09-.034.18-.053.27l-.004.011a.296.296 0 01-.007.04l-.004.011a3.033 3.033 0 01-.047.206c-.006.033-.015.067-.023.101-.006.02-.01.04-.017.059l-.013.049a8.968 8.968 0 01-.202.669l-.007.023-.068.192-.023.058a5.15 5.15 0 01-.07.181c-.028.073-.058.145-.088.217-.026.064-.055.128-.083.192-.003.012-.01.02-.013.032-.032.068-.062.136-.094.202a10.17 10.17 0 01-.317.618l-.102.181a11.106 11.106 0 01-1.11 1.584 8.64 8.64 0 01-.213.248c-.064.072-.128.144-.194.214-.181.194-.366.378-.555.552-.037.038-.077.072-.116.107a5.581 5.581 0 01-.195.17 8.833 8.833 0 01-.74.575 7.188 7.188 0 01-.447.296 6.894 6.894 0 01-.72.392 5.352 5.352 0 01-.408.176 3.54 3.54 0 01-.222.082 3.808 3.808 0 01-.279.09 3.654 3.654 0 01-.207.054 3.405 3.405 0 01-.244.05c-.052.01-.105.02-.158.025a2.14 2.14 0 01-.226.025 2.94 2.94 0 01-.256.011h-.006a2.778 2.778 0 01-.243-.011 1.701 1.701 0 01-.2-.02 4.293 4.293 0 01-.394-.07 5.428 5.428 0 01-.99-.334 7.232 7.232 0 01-.865-.456 8.57 8.57 0 01-.649-.438 9.499 9.499 0 01-.665-.535l-.181-.166-.18-.166a9.588 9.588 0 01-.593-.622 9.165 9.165 0 01-.437-.528 10.608 10.608 0 01-.831-1.214c-.053-.089-.104-.18-.155-.27a10.278 10.278 0 01-.766-1.719l-.098-.303a7.745 7.745 0 01-.084-.296 5.732 5.732 0 01-.083-.323l-.008-.034a9.1 9.1 0 01-.243-1.866c-.002-.083-.004-.166-.004-.249v-5.733A7.675 7.675 0 0119.994 6h.008a7.76 7.76 0 011.7.188 7.625 7.625 0 013.157 1.546 7.58 7.58 0 011.182 1.207 7.625 7.625 0 011.633 4.665c.002.023.002.046.002.068z" fill="#FFE1B2"></path>
    <path fill-rule="evenodd" clip-rule="evenodd" d="M29.952 39.812C27.899 40 25.307 40 21.867 40h-3.734c-3.44 0-6.032 0-8.084-.188a9.875 9.875 0 01.689-2.78v-.003a9.888 9.888 0 012.004-3.103l.01-.01.2-.204a9.927 9.927 0 012.274-1.693c.004-.004.008-.004.008-.004.08-.043.16-.09.24-.14a6.339 6.339 0 002.694-3.284 6.314 6.314 0 00.369-2.135l1.457.007 1.498.008a6.313 6.313 0 002.788 5.244 3.864 3.864 0 00.25.162c.078.048.158.095.237.138a11.524 11.524 0 01.524.305c.077.048.155.097.23.151a6.94 6.94 0 01.46.325h.002a10.398 10.398 0 011.078.931 9.945 9.945 0 012.89 6.085z" fill="#F0C290"></path>
    <path fill-rule="evenodd" clip-rule="evenodd" d="M29.95 39.812C27.9 40 25.307 40 21.868 40h-3.734c-3.44 0-6.033 0-8.085-.188a9.88 9.88 0 01.69-2.782v-.002a9.884 9.884 0 012.015-3.114 9.927 9.927 0 012.473-1.898c.004-.004.007-.002.007-.002v-.002a5.815 5.815 0 00.912-.613l.004.004c.977 1 2.336 1.62 3.844 1.623h.015a5.385 5.385 0 003.854-1.62l.002-.003a5.065 5.065 0 00.46.341c.061.042.125.082.19.122l.017.01a4.612 4.612 0 00.259.147l.01.006a8.045 8.045 0 01.49.29c.078.048.155.097.23.151.157.1.31.21.459.323h.003a9.926 9.926 0 011.079.933 9.946 9.946 0 012.89 6.086z" fill="#FF9054"></path>
    <path d="M27.676 19.407a10.338 10.338 0 01-.023.631c-.002.044-.006.087-.01.13-.002.027-.003.052-.007.078a1.782 1.782 0 01-.015.143c-.01.09-.02.181-.032.27-.002.023-.006.045-.01.068-.005.045-.013.09-.02.135-.01.068-.023.136-.034.202a8.384 8.384 0 01-.057.281l-.008.04-.003.011c0 .01-.002.017-.004.025-.01.04-.017.079-.028.118a.371.371 0 01-.015.063 1.115 1.115 0 01-.029.109.233.233 0 01-.01.05l-.014.05a8.968 8.968 0 01-.202.67l-.007.022-.068.192-.023.058a5.15 5.15 0 01-.07.181c-.028.074-.058.145-.088.217-.026.064-.055.128-.083.192-.003.012-.01.021-.013.032-.032.068-.062.136-.094.202a10.234 10.234 0 01-.317.618l-.102.181a11.092 11.092 0 01-1.11 1.584 8.82 8.82 0 01-.213.249c-.064.071-.128.143-.194.213-.181.194-.366.378-.555.552-.037.038-.077.072-.116.108a5.689 5.689 0 01-.195.17 8.973 8.973 0 01-.74.575 7.185 7.185 0 01-.447.295 6.865 6.865 0 01-.72.393 5.356 5.356 0 01-.408.175c-.073.03-.149.058-.222.083a3.808 3.808 0 01-.279.088 3.56 3.56 0 01-.207.055 3.406 3.406 0 01-.244.051c-.052.01-.105.019-.158.025-.075.01-.15.02-.226.024a2.94 2.94 0 01-.256.011h-.006a2.778 2.778 0 01-.243-.011 1.735 1.735 0 01-.2-.019 4.418 4.418 0 01-.394-.072 5.429 5.429 0 01-.99-.333 7.245 7.245 0 01-.865-.456 7.174 7.174 0 01-.649-.438 9.499 9.499 0 01-.665-.535l-.181-.166-.18-.166a9.538 9.538 0 01-.593-.622 9.2 9.2 0 01-.437-.528 10.587 10.587 0 01-.831-1.214c-.053-.088-.104-.179-.155-.27a10.27 10.27 0 01-.658-1.419c-.038-.1-.074-.2-.107-.3-.034-.1-.066-.202-.099-.303a7.793 7.793 0 01-.084-.296 5.758 5.758 0 01-.083-.323l-.008-.034a9.077 9.077 0 01-.243-1.866c-.002-.083-.004-.166-.004-.249l1.226 2.41 2.105.918 2.49.224h.002l1.845.168h.012l1.726.156s0-.002.002 0l3.852.347 2.09-4.223z" fill="#4E1E30"></path>
    <path d="M20.009 20.618l-.002 1.857v.002l-.002.65v.511l-.002 1.697v.002l-.002-.002H20l-.006-.004-7.415-3.774c-.001-.011-.005-.023-.007-.034a8.862 8.862 0 01-.207-1.276 8.932 8.932 0 01-.036-.59c-.002-.084-.004-.166-.004-.25v-2.252l.002.096a7.51 7.51 0 00.27 1.757c.13.471.291.907.48 1.295v.002c.494 1.027 1.156 1.725 1.764 1.838a6.629 6.629 0 00.852.055c.962 0 1.816-.773 2.353-1.086l.012-.006a1.746 1.746 0 00.103-.064c.453-.258 1.105-.422 1.833-.424h.015z" fill="#4E1E30"></path>
    <path d="M27.677 17.154l-.002 2.252a9.24 9.24 0 01-.15 1.657c-.04.215-.085.428-.138.64l-1.74 2.512-5.644 1.118H20l-.002.002v-.002l-.006-4.717h.015c.728.002 1.382.166 1.835.424a3.292 3.292 0 00.113.07c.539.312 1.39 1.086 2.352 1.086a6.469 6.469 0 00.854-.055c.607-.113 1.27-.81 1.763-1.838v-.002c.188-.388.35-.823.48-1.295.17-.622.259-1.229.27-1.781.002-.024.002-.047.002-.071z" fill="#4E1E30"></path>
    <path d="M20 23.637c1.038 0 1.88-.26 1.88-.581 0-.321-.842-.581-1.88-.581-1.039 0-1.88.26-1.88.581 0 .321.841.581 1.88.581z" fill="#F0C290"></path>
    <path d="M20 6h-.006a7.675 7.675 0 00-7.669 7.674v3.384s.318-2.019 1.176-2.999c.932-1.065.696-2.684 2.785-2.684 1.348 0 1.423.497 3.706.497h.011c2.283 0 2.358-.498 3.706-.498 2.089 0 1.853 1.62 2.785 2.685.857.98 1.176 3 1.176 3v-3.385A7.675 7.675 0 0020 6z" fill="#4E1E30"></path>
    <path d="M25.066 32.181l-.207.212a6.764 6.764 0 01-4.862 2.043 6.77 6.77 0 01-4.871-2.047l-.198-.203a7.32 7.32 0 01.297-.17c.004-.004.008-.002.008-.002v-.002a5.827 5.827 0 00.912-.613l.004.004c.977 1 2.336 1.62 3.844 1.623h.015a5.385 5.385 0 003.854-1.621l.001-.002a5.066 5.066 0 00.46.341c.068.046.138.089.207.132.078.047.157.093.236.136.013.004.023.011.034.017.089.05.18.1.266.152z" fill="#CC784A"></path>
  </symbol>
  <symbol fill="none" xmlns="http://www.w3.org/2000/svg" viewBox="0 0 40 40" id="dustin">
    <path d="M0 18.133C0 11.15 0 7.658 1.572 5.093a10.667 10.667 0 013.521-3.521C7.658 0 11.15 0 18.133 0h3.734c6.983 0 10.475 0 13.04 1.572a10.668 10.668 0 013.521 3.521C40 7.658 40 11.15 40 18.133v3.734c0 6.983 0 10.475-1.572 13.04a10.669 10.669 0 01-3.521 3.521C32.342 40 28.85 40 21.867 40h-3.734c-6.983 0-10.475 0-13.04-1.572a10.668 10.668 0 01-3.521-3.521C0 32.342 0 28.85 0 21.867v-3.734z" fill="#44CB7F"></path>
    <path d="M30.4 17.975v-1.473c0-.392.091-.778.267-1.13.35-.873.463-1.823.33-2.754l-.064-.445H18.4L8.8 27.64l9.067 2.933 5.866-7.733h6.92a1.187 1.187 0 00.989-.53l.108-.162a1.487 1.487 0 00-.186-1.878l-.364-.364a2.732 2.732 0 01-.8-1.931z" fill="#FFE1B2"></path>
    <path fill-rule="evenodd" clip-rule="evenodd" d="M19.904 40h-1.77c-6.984 0-10.476 0-13.04-1.572-.606-.37-1.17-.8-1.686-1.279-.09-3.17 3.803-9.11 4.91-10.45.284-.344.758-.46 1.175-.302l9.325 3.553a2.602 2.602 0 011.569 1.653c.74 2.386 1.285 5.7 1.636 8.397h-2.119z" fill="#FFCA61"></path>
    <path d="M29.599 22.573c-1.335-.8-5.599-.534-5.866-.8-1.6-1.6.666-7.6 1.866-9.6 10.134 3.2 10.134-5.6.8-5.067-10.238-4.2-18.15 2.711-13.308 14.12.144.338.46.576.826.62 1.12.137 3.48.396 3.682.194.265-.267 1.068-2.134.533-2.4-5.807-2.897 2.5-8.644 3.39-3.16.11.667-.042 1.354-.35 1.956-1.17 2.282-2.985 4.374-2.24 7.337.268 1.067 4.588 3.147 6.935 2.933 2.346-.213 5.066-5.333 3.732-6.133z" fill="#4E1E30"></path>
    <path d="M27.734 17.773a.8.8 0 101.6 0 .8.8 0 00-1.6 0z" fill="#4E1E30"></path>
    <path d="M30.4 15.373a.533.533 0 00-.533-.533H27.2a.533.533 0 100 1.066h2.667a.533.533 0 00.533-.533z" fill="#5B2C3E"></path>
  </symbol>
</svg>