<svg width="0" height="0" class="hidden">
  <symbol fill="none" xmlns="http://www.w3.org/2000/svg" viewBox="0 0 48 48" id="dashboard">
    <path fill-rule="evenodd" clip-rule="evenodd" d="M35.6 26H26v9.6h9.6V26zM26 22.4h9.6a3.6 3.6 0 013.6 3.6v9.6a3.6 3.6 0 01-3.6 3.6H26a3.6 3.6 0 01-3.6-3.6V26a3.6 3.6 0 013.6-3.6zm-12-18H4.4V14H14V4.4zm21.6 0H26V14h9.6V4.4zM14 26H4.4v9.6H14V26zM14 .8H4.4A3.6 3.6 0 00.8 4.4V14a3.6 3.6 0 003.6 3.6H14a3.6 3.6 0 003.6-3.6V4.4A3.6 3.6 0 0014 .8zm21.6 0H26a3.6 3.6 0 00-3.6 3.6V14a3.6 3.6 0 003.6 3.6h9.6a3.6 3.6 0 003.6-3.6V4.4A3.6 3.6 0 0035.6.8zM4.4 22.4H14a3.6 3.6 0 013.6 3.6v9.6a3.6 3.6 0 01-3.6 3.6H4.4a3.6 3.6 0 01-3.6-3.6V26a3.6 3.6 0 013.6-3.6z" fill="#fff"></path>
  </symbol>
  <symbol fill="none" xmlns="http://www.w3.org/2000/svg" viewBox="0 0 48 48" id="cart">
    <path fill-rule="evenodd" clip-rule="evenodd" d="M4.2 5.592a1.8 1.8 0 000 3.6h4.852l1.279 6.392c.008.048.017.096.029.144L13 28.922v.002a4.964 4.964 0 004.945 3.994h15.344a4.963 4.963 0 004.944-3.996l.003-.013 2.53-13.271a1.8 1.8 0 00-1.768-2.137H13.585l-1.293-6.462a1.8 1.8 0 00-1.765-1.447H4.2zm12.331 22.626l-2.225-11.117h22.517L34.7 28.226a1.363 1.363 0 01-1.362 1.093H17.895a1.363 1.363 0 01-1.363-1.098v-.003zm.323 11.028a.219.219 0 100-.438.219.219 0 000 .438zm-3.381-.219a3.381 3.381 0 116.762 0 3.381 3.381 0 01-6.762 0zm20.78.219a.219.219 0 100-.438.219.219 0 000 .438zm-3.38-.219a3.381 3.381 0 116.761 0 3.381 3.381 0 01-6.762 0z" fill="#fff"></path>
  </symbol>
  <symbol fill="none" xmlns="http://www.w3.org/2000/svg" viewBox="0 0 48 48" id="calendar">
    <path fill-rule="evenodd" clip-rule="evenodd" d="M10.158.8a1.8 1.8 0 011.8 1.8v1.21H18.2V2.6a1.8 1.8 0 013.6 0v1.21h6V2.6a1.8 1.8 0 013.6 0v1.21h1.2a6.6 6.6 0 016.6 6.6v7.424a1.8 1.8 0 01-3.6 0V10.41a3 3 0 00-3-3h-1.2v1.194a1.8 1.8 0 11-3.6 0V7.41h-6v1.194a1.8 1.8 0 11-3.6 0V7.41h-6.242v1.194a1.8 1.8 0 11-3.6 0V7.41H7.4a3 3 0 00-3 3v22.2a3 3 0 003 3h10.425a1.8 1.8 0 010 3.6H7.4a6.6 6.6 0 01-6.6-6.6v-22.2a6.6 6.6 0 016.6-6.6h.958V2.6a1.8 1.8 0 011.8-1.8zm1.73 15.73a1.68 1.68 0 11-3.36 0 1.68 1.68 0 013.36 0zm4.8 1.68a1.68 1.68 0 100-3.36 1.68 1.68 0 000 3.36zm-4.8 4.871a1.68 1.68 0 11-3.36 0 1.68 1.68 0 013.36 0zm4.8 1.68a1.68 1.68 0 100-3.36 1.68 1.68 0 000 3.36zm-4.8 4.824a1.68 1.68 0 11-3.36 0 1.68 1.68 0 013.36 0zm4.8 1.68a1.68 1.68 0 100-3.36 1.68 1.68 0 000 3.36zM24.92 16.53a1.68 1.68 0 11-3.36 0 1.68 1.68 0 013.36 0zm4.8 1.68a1.68 1.68 0 100-3.36 1.68 1.68 0 000 3.36z" fill="#fff"></path>
    <path fill-rule="evenodd" clip-rule="evenodd" d="M35.6 29.61a6 6 0 11-12 0 6 6 0 0112 0zm3.6 0a9.6 9.6 0 11-19.2 0 9.6 9.6 0 0119.2 0zm-9.12-2.4a1.2 1.2 0 10-2.4 0v3.6a1.2 1.2 0 001.2 1.2h2.88a1.2 1.2 0 000-2.4h-1.68v-2.4z" fill="#fff"></path>
  </symbol>
  <symbol fill="none" xmlns="http://www.w3.org/2000/svg" viewBox="0 0 48 48" id="mail">
    <path fill-rule="evenodd" clip-rule="evenodd" d="M8.603 12.885A1.69 1.69 0 0110.08 12h27.84c.633 0 1.191.36 1.477.885L24 23.663 8.603 12.885zm-3.803.774V34.56a5.29 5.29 0 005.28 5.28h27.84a5.29 5.29 0 005.28-5.28c0-2.322.007-4.645.015-6.968.014-4.637.029-9.274-.015-13.91v-.051c-.027-2.835-2.388-5.231-5.28-5.231H10.08a5.29 5.29 0 00-5.28 5.26zm34.8 3.478V34.56c0 .92-.76 1.68-1.68 1.68H10.08c-.92 0-1.68-.76-1.68-1.68V17.137l14.568 10.198a1.8 1.8 0 002.064 0L39.6 17.137z" fill="#fff"></path>
  </symbol>
  <symbol fill="none" xmlns="http://www.w3.org/2000/svg" viewBox="0 0 48 48" id="chat">
    <path fill-rule="evenodd" clip-rule="evenodd" d="M9.005 13.805a2.067 2.067 0 011.462-.605h27.068a2.067 2.067 0 012.067 2.067v19.335a2.067 2.067 0 01-2.066 2.067H14.333a1.8 1.8 0 00-1.273.527l-4.66 4.66v-26.59c0-.547.218-1.073.605-1.46zM10.467 9.6A5.667 5.667 0 004.8 15.267v30.935a1.8 1.8 0 003.073 1.273l7.206-7.206h22.456a5.667 5.667 0 005.667-5.667V15.267A5.667 5.667 0 0037.536 9.6h-27.07zm3.315 9.6a1.8 1.8 0 000 3.6H34.2a1.8 1.8 0 000-3.6H13.782zm.018 7.201a1.8 1.8 0 100 3.6h13.207a1.8 1.8 0 100-3.6H13.8z" fill="#fff"></path>
  </symbol>
  <symbol fill="none" xmlns="http://www.w3.org/2000/svg" viewBox="0 0 48 48" id="tasks">
    <path fill-rule="evenodd" clip-rule="evenodd" d="M12.2.8C5.904.8.8 5.904.8 12.2v15.6c0 6.296 5.104 11.4 11.4 11.4h15.6c6.296 0 11.4-5.104 11.4-11.4V12.2C39.2 5.904 34.096.8 27.8.8H12.2zM4.4 12.2a7.8 7.8 0 017.8-7.8h15.6a7.8 7.8 0 017.8 7.8v15.6a7.8 7.8 0 01-7.8 7.8H12.2a7.8 7.8 0 01-7.8-7.8V12.2zm24.206 4.782a1.8 1.8 0 10-2.422-2.664l-8.359 7.6-3.14-2.854a1.8 1.8 0 10-2.42 2.663l4.35 3.955a1.8 1.8 0 002.42 0l9.57-8.7z" fill="#fff"></path>
  </symbol>
  <symbol fill="none" xmlns="http://www.w3.org/2000/svg" viewBox="0 0 48 48" id="project">
    <path fill-rule="evenodd" clip-rule="evenodd" d="M23.195 4.99a1.8 1.8 0 011.61 0l17.4 8.7a1.8 1.8 0 010 3.22l-17.4 8.7a1.8 1.8 0 01-1.61 0l-17.4-8.7a1.8 1.8 0 010-3.22l17.4-8.7zM10.625 15.3L24 21.988 37.375 15.3 24 8.612 10.625 15.3zM4.99 31.895a1.8 1.8 0 012.415-.805L24 39.388l16.595-8.298a1.8 1.8 0 111.61 3.22l-17.4 8.7a1.8 1.8 0 01-1.61 0l-17.4-8.7a1.8 1.8 0 01-.805-2.415zm2.415-9.505a1.8 1.8 0 10-1.61 3.22l17.4 8.7a1.8 1.8 0 001.61 0l17.4-8.7a1.8 1.8 0 00-1.61-3.22L24 30.688 7.405 22.39z" fill="#fff"></path>
  </symbol>
  <symbol fill="none" xmlns="http://www.w3.org/2000/svg" viewBox="0 0 48 48" id="folder">
    <path fill-rule="evenodd" clip-rule="evenodd" d="M10.08 10.8a1.68 1.68 0 00-1.68 1.68v6.9h31.2V17.7a1.68 1.68 0 00-1.68-1.68H22.26a1.8 1.8 0 01-1.498-.801L17.817 10.8H10.08zM39.6 22.98H8.4v13.86a1.68 1.68 0 001.68 1.68h27.84a1.68 1.68 0 001.68-1.68V22.98zM6.346 8.746A5.28 5.28 0 0110.08 7.2h8.7a1.8 1.8 0 011.498.802l2.945 4.418H37.92a5.28 5.28 0 015.28 5.28v19.14a5.28 5.28 0 01-5.28 5.28H10.08a5.28 5.28 0 01-5.28-5.28V12.48c0-1.4.556-2.743 1.546-3.734z" fill="#fff"></path>
  </symbol>
  <symbol fill="none" xmlns="http://www.w3.org/2000/svg" viewBox="0 0 48 48" id="text">
    <path fill-rule="evenodd" clip-rule="evenodd" d="M12.48 4.8H26.4a1.8 1.8 0 011.273.527l10.44 10.44a1.8 1.8 0 01.527 1.273v20.88c0 2.876-2.404 5.28-5.28 5.28H12.48c-2.876 0-5.28-2.404-5.28-5.28V10.08c0-2.876 2.404-5.28 5.28-5.28zm0 3.6c-.891 0-1.68.789-1.68 1.68v27.84c0 .891.789 1.68 1.68 1.68h20.88c.891 0 1.68-.789 1.68-1.68V18.84H26.4a1.8 1.8 0 01-1.8-1.8V8.4H12.48zm15.72 2.546l4.294 4.294H28.2v-4.294zM14.16 18.78a1.8 1.8 0 011.8-1.8h3.48a1.8 1.8 0 110 3.6h-3.48a1.8 1.8 0 01-1.8-1.8zm1.8 5.16a1.8 1.8 0 000 3.6h13.92a1.8 1.8 0 100-3.6H15.96zm0 6.959a1.8 1.8 0 000 3.6h13.92a1.8 1.8 0 100-3.6H15.96z" fill="#fff"></path>
  </symbol>
  <symbol fill="none" xmlns="http://www.w3.org/2000/svg" viewBox="0 0 48 48" id="contacts">
    <path fill-rule="evenodd" clip-rule="evenodd" d="M11.547 9.147A2.55 2.55 0 0113.35 8.4h21.69v22.5H13.35a6.14 6.14 0 00-2.55.554V10.95c0-.676.269-1.325.747-1.803zM10.8 37.05a2.55 2.55 0 002.55 2.55h21.69v-5.1H13.35a2.55 2.55 0 00-2.55 2.55zm27.84-4.35V6.6a1.8 1.8 0 00-1.8-1.8H13.35a6.15 6.15 0 00-6.15 6.15v26.1a6.15 6.15 0 006.15 6.15h23.49a1.8 1.8 0 001.8-1.8v-8.7z" fill="#fff"></path>
  </symbol>
  <symbol fill="none" xmlns="http://www.w3.org/2000/svg" viewBox="0 0 24 15" id="arrow">
    <path fill-rule="evenodd" clip-rule="evenodd" d="M23.06.94a1.5 1.5 0 010 2.12L12 14.122.94 3.061A1.5 1.5 0 113.06.939L12 9.88 20.94.94a1.5 1.5 0 012.12 0z" fill="#fff"></path>
  </symbol>
  <symbol fill="none" xmlns="http://www.w3.org/2000/svg" viewBox="0 0 18 18" id="search">
    <path fill-rule="evenodd" clip-rule="evenodd" d="M2.05 7.9a5.85 5.85 0 1111.7 0 5.85 5.85 0 01-11.7 0zM7.9.55a7.35 7.35 0 104.64 13.05l3.904 3.905a.75.75 0 101.06-1.06l-3.903-3.905A7.35 7.35 0 007.9.55z" fill="#818386"></path>
  </symbol>
  <symbol fill="none" xmlns="http://www.w3.org/2000/svg" viewBox="0 0 12 12" id="plus">
    <path fill-rule="evenodd" clip-rule="evenodd" d="M7 1a1 1 0 00-2 0v4H1a1 1 0 000 2h4v4a1 1 0 102 0V7h4a1 1 0 100-2H7V1z" fill="#818386"></path>
  </symbol>
  <symbol fill="none" xmlns="http://www.w3.org/2000/svg" viewBox="0 0 18 4" id="dots">
    <path fill-rule="evenodd" clip-rule="evenodd" d="M4.05 2a1.65 1.65 0 11-3.3 0 1.65 1.65 0 013.3 0zm6.6 0a1.65 1.65 0 11-3.3 0 1.65 1.65 0 013.3 0zm4.95 1.65a1.65 1.65 0 100-3.3 1.65 1.65 0 000 3.3z" fill="#818386"></path>
  </symbol>
  <symbol fill="none" xmlns="http://www.w3.org/2000/svg" viewBox="0 0 17 18" id="delete">
    <path fill-rule="evenodd" clip-rule="evenodd" d="M6.85503 2.07553C6.99943 1.93112 7.19528 1.85 7.3995 1.85H10.5895C10.7937 1.85 10.9896 1.93112 11.134 2.07553C11.2784 2.21993 11.3595 2.41578 11.3595 2.62V3.39L6.6295 3.38999V2.62C6.6295 2.41578 6.71063 2.21993 6.85503 2.07553ZM4.9795 3.38999V2.62C4.9795 1.97818 5.23447 1.36264 5.6883 0.908801C6.14214 0.454963 6.75768 0.2 7.3995 0.2H10.5895C11.2313 0.2 11.8469 0.454963 12.3007 0.908801C12.7545 1.36264 13.0095 1.97818 13.0095 2.62V3.39L16.172 3.38999C16.6276 3.38999 16.997 3.75936 16.997 4.21499C16.997 4.67063 16.6276 5.03999 16.172 5.03999H15.402V15.38C15.402 16.0218 15.147 16.6374 14.6932 17.0912C14.2394 17.545 13.6238 17.8 12.982 17.8H5.007C4.36518 17.8 3.74964 17.545 3.2958 17.0912C2.84196 16.6374 2.587 16.0218 2.587 15.38V5.03999H1.817C1.36137 5.03999 0.992004 4.67063 0.992004 4.21499C0.992004 3.75936 1.36137 3.38999 1.817 3.38999H4.9795ZM4.237 15.38V5.04H13.752V15.38C13.752 15.5842 13.6709 15.7801 13.5265 15.9245C13.3821 16.0689 13.1862 16.15 12.982 16.15H5.007C4.80278 16.15 4.60693 16.0689 4.46253 15.9245C4.31813 15.7801 4.237 15.5842 4.237 15.38ZM7.39952 7.37753C7.85515 7.37753 8.22452 7.74689 8.22452 8.20253V12.9875C8.22452 13.4432 7.85515 13.8125 7.39952 13.8125C6.94388 13.8125 6.57452 13.4432 6.57452 12.9875V8.20253C6.57452 7.74689 6.94388 7.37753 7.39952 7.37753ZM11.4145 8.20253C11.4145 7.74689 11.0451 7.37753 10.5895 7.37753C10.1338 7.37753 9.76448 7.74689 9.76448 8.20253V12.9875C9.76448 13.4432 10.1338 13.8125 10.5895 13.8125C11.0451 13.8125 11.4145 13.4432 11.4145 12.9875V8.20253Z" fill="#818386"/>
  </symbol>
  <symbol fill="none" xmlns="http://www.w3.org/2000/svg" viewBox="0 0 18 18" id="edit">
    <path fill-rule="evenodd" clip-rule="evenodd" d="M14.6998 1.85C14.5094 1.85 14.3208 1.88751 14.1448 1.96039C13.9689 2.03327 13.809 2.14009 13.6744 2.27475L12.384 3.56515L14.4348 5.61602L15.7252 4.32562C15.8599 4.19096 15.9667 4.03109 16.0396 3.85515C16.1125 3.6792 16.15 3.49063 16.15 3.30018C16.15 3.10974 16.1125 2.92117 16.0396 2.74522C15.9667 2.56928 15.8599 2.40941 15.7252 2.27475C15.5906 2.14009 15.4307 2.03327 15.2548 1.96039C15.0788 1.88751 14.8903 1.85 14.6998 1.85ZM13.2681 6.78275L11.2172 4.73187L2.9699 12.9792L2.20082 15.7992L5.02077 15.0301L13.2681 6.78275ZM13.5134 0.435987C13.8896 0.280188 14.2927 0.2 14.6998 0.2C15.1069 0.2 15.5101 0.280188 15.8862 0.435987C16.2623 0.591786 16.6041 0.820144 16.892 1.10802C17.1799 1.3959 17.4082 1.73766 17.564 2.1138C17.7198 2.48993 17.8 2.89306 17.8 3.30018C17.8 3.70731 17.7198 4.11044 17.564 4.48657C17.4082 4.86271 17.1799 5.20447 16.892 5.49235L6.03258 16.3517C5.93106 16.4533 5.8048 16.5265 5.66629 16.5643L1.24209 17.7709C0.956462 17.8488 0.650996 17.7677 0.441653 17.5583C0.232309 17.349 0.151188 17.0435 0.229086 16.7579L1.43569 12.3337C1.47346 12.1952 1.54673 12.0689 1.64825 11.9674L12.5076 1.10802C12.7955 0.820144 13.1373 0.591786 13.5134 0.435987Z" fill="#818386"/>
  </symbol>
  <symbol fill="none" xmlns="http://www.w3.org/2000/svg" viewBox="0 0 16 16" id="download">
    <path fill-rule="evenodd" clip-rule="evenodd" d="M10.8989 7.75503C11.1994 7.48146 11.6647 7.50325 11.9383 7.8037C12.2118 8.10415 12.1901 8.56948 11.8896 8.84306L7.99852 12.3861L4.10744 8.84306C3.80699 8.56948 3.7852 8.10415 4.05877 7.8037C4.33235 7.50325 4.79768 7.48146 5.09813 7.75503L7.26278 9.72604V0.735742C7.26278 0.329402 7.59218 0 7.99852 0C8.40486 0 8.73426 0.329402 8.73426 0.735742V9.72604L10.8989 7.75503ZM1.45455 12.3633C1.45455 11.9617 1.12893 11.6361 0.727273 11.6361C0.325611 11.6361 0 11.9617 0 12.3633V13.333C0 14.8058 1.19391 15.9997 2.66667 15.9997H13.3333C14.8061 15.9997 16 14.8058 16 13.333V12.3633C16 11.9617 15.6744 11.6361 15.2727 11.6361C14.8711 11.6361 14.5455 11.9617 14.5455 12.3633V13.333C14.5455 14.0025 14.0028 14.5451 13.3333 14.5451H2.66667C1.99723 14.5451 1.45455 14.0025 1.45455 13.333V12.3633Z" fill="white"/>
  </symbol>
  <symbol fill="none" xmlns="http://www.w3.org/2000/svg" viewBox="0 0 21 21" id="send">
    <path d="M18.02.157L1.24 7.096a1.996 1.996 0 00-1.235 1.71c-.055.764.32 1.48.978 1.87l4.809 2.699c.736-.736 6.415-4.782 6.415-4.782s-4.046 5.679-4.782 6.415l2.698 4.81a1.996 1.996 0 001.87.977 1.997 1.997 0 001.711-1.235l6.939-16.78a1.976 1.976 0 00-.436-2.187 1.976 1.976 0 00-2.186-.436z" fill="#fff"></path>
  </symbol>
  <symbol fill="none" xmlns="http://www.w3.org/2000/svg" viewBox="0 0 17 18" id="attachment">
    <path fill-rule="evenodd" clip-rule="evenodd" d="M11.382 1.509c-.618 0-1.213.248-1.652.692L2.64 9.376A3.959 3.959 0 001.5 12.16c0 1.044.41 2.045 1.139 2.782a3.858 3.858 0 002.744 1.15 3.858 3.858 0 002.743-1.15l7.092-7.175a.747.747 0 011.06-.003.757.757 0 01.004 1.067L9.19 16.005A5.354 5.354 0 015.383 17.6a5.354 5.354 0 01-3.808-1.595A5.472 5.472 0 010 12.159a5.47 5.47 0 011.575-3.846l7.092-7.175A3.818 3.818 0 0111.382 0c1.02 0 1.997.41 2.716 1.138a3.9 3.9 0 011.123 2.741 3.9 3.9 0 01-1.123 2.741l-7.1 7.175a2.28 2.28 0 01-3.247 0 2.328 2.328 0 01-.67-1.636c0-.613.24-1.202.67-1.637l6.552-6.62a.747.747 0 011.06-.003.757.757 0 01.003 1.066l-6.551 6.62a.815.815 0 000 1.147.787.787 0 001.12 0l7.1-7.175a2.387 2.387 0 00.686-1.678c0-.63-.248-1.234-.687-1.678a2.323 2.323 0 00-1.652-.692z" fill="#818386"></path>
  </symbol>
  <symbol fill="none" xmlns="http://www.w3.org/2000/svg" viewBox="0 0 18 18" id="emoji">
    <path fill-rule="evenodd" clip-rule="evenodd" d="M8.8 0a8.8 8.8 0 100 17.6A8.8 8.8 0 008.8 0zm0 15.766a6.967 6.967 0 110-13.933 6.967 6.967 0 110 13.933zm-.917-8.8c0 .887-.615 1.605-1.374 1.605-.76 0-1.376-.718-1.376-1.604 0-.887.616-1.604 1.375-1.604.76 0 1.375.717 1.375 1.604zm3.209 1.605c.76 0 1.375-.718 1.375-1.604 0-.887-.616-1.604-1.375-1.604-.76 0-1.375.718-1.375 1.604 0 .885.616 1.604 1.375 1.604zm.763 1.747a.693.693 0 01.924-.293.683.683 0 01.303.915c-.045.09-1.142 2.213-4.281 2.213s-4.237-2.122-4.283-2.213a.689.689 0 011.228-.621c.038.072.808 1.46 3.055 1.46 2.258 0 3.023-1.4 3.054-1.461z" fill="#818386"></path>
  </symbol>
  <symbol fill="none" xmlns="http://www.w3.org/2000/svg" viewBox="0 0 40 36" id="burger">
    <rect width="40" height="8" rx="4" fill="#3A63DE"></rect>
    <rect y="14" width="40" height="8" rx="4" fill="#3A63DE"></rect>
    <rect y="28" width="40" height="8" rx="4" fill="#3A63DE"></rect>
  </symbol>
</svg>