<svg width="0" height="0" class="hidden">
  <symbol fill="none" xmlns="http://www.w3.org/2000/svg" viewBox="0 0 48 48" id="dashboard">
    <path fill-rule="evenodd" clip-rule="evenodd" d="M35.6 26H26v9.6h9.6V26zM26 22.4h9.6a3.6 3.6 0 013.6 3.6v9.6a3.6 3.6 0 01-3.6 3.6H26a3.6 3.6 0 01-3.6-3.6V26a3.6 3.6 0 013.6-3.6zm-12-18H4.4V14H14V4.4zm21.6 0H26V14h9.6V4.4zM14 26H4.4v9.6H14V26zM14 .8H4.4A3.6 3.6 0 00.8 4.4V14a3.6 3.6 0 003.6 3.6H14a3.6 3.6 0 003.6-3.6V4.4A3.6 3.6 0 0014 .8zm21.6 0H26a3.6 3.6 0 00-3.6 3.6V14a3.6 3.6 0 003.6 3.6h9.6a3.6 3.6 0 003.6-3.6V4.4A3.6 3.6 0 0035.6.8zM4.4 22.4H14a3.6 3.6 0 013.6 3.6v9.6a3.6 3.6 0 01-3.6 3.6H4.4a3.6 3.6 0 01-3.6-3.6V26a3.6 3.6 0 013.6-3.6z" fill="#fff"></path>
  </symbol>
  <symbol fill="none" xmlns="http://www.w3.org/2000/svg" viewBox="0 0 48 48" id="cart">
    <path fill-rule="evenodd" clip-rule="evenodd" d="M4.2 5.592a1.8 1.8 0 000 3.6h4.852l1.279 6.392c.008.048.017.096.029.144L13 28.922v.002a4.964 4.964 0 004.945 3.994h15.344a4.963 4.963 0 004.944-3.996l.003-.013 2.53-13.271a1.8 1.8 0 00-1.768-2.137H13.585l-1.293-6.462a1.8 1.8 0 00-1.765-1.447H4.2zm12.331 22.626l-2.225-11.117h22.517L34.7 28.226a1.363 1.363 0 01-1.362 1.093H17.895a1.363 1.363 0 01-1.363-1.098v-.003zm.323 11.028a.219.219 0 100-.438.219.219 0 000 .438zm-3.381-.219a3.381 3.381 0 116.762 0 3.381 3.381 0 01-6.762 0zm20.78.219a.219.219 0 100-.438.219.219 0 000 .438zm-3.38-.219a3.381 3.381 0 116.761 0 3.381 3.381 0 01-6.762 0z" fill="#fff"></path>
  </symbol>
  <symbol fill="none" xmlns="http://www.w3.org/2000/svg" viewBox="0 0 48 48" id="calendar">
    <path fill-rule="evenodd" clip-rule="evenodd" d="M10.158.8a1.8 1.8 0 011.8 1.8v1.21H18.2V2.6a1.8 1.8 0 013.6 0v1.21h6V2.6a1.8 1.8 0 013.6 0v1.21h1.2a6.6 6.6 0 016.6 6.6v7.424a1.8 1.8 0 01-3.6 0V10.41a3 3 0 00-3-3h-1.2v1.194a1.8 1.8 0 11-3.6 0V7.41h-6v1.194a1.8 1.8 0 11-3.6 0V7.41h-6.242v1.194a1.8 1.8 0 11-3.6 0V7.41H7.4a3 3 0 00-3 3v22.2a3 3 0 003 3h10.425a1.8 1.8 0 010 3.6H7.4a6.6 6.6 0 01-6.6-6.6v-22.2a6.6 6.6 0 016.6-6.6h.958V2.6a1.8 1.8 0 011.8-1.8zm1.73 15.73a1.68 1.68 0 11-3.36 0 1.68 1.68 0 013.36 0zm4.8 1.68a1.68 1.68 0 100-3.36 1.68 1.68 0 000 3.36zm-4.8 4.871a1.68 1.68 0 11-3.36 0 1.68 1.68 0 013.36 0zm4.8 1.68a1.68 1.68 0 100-3.36 1.68 1.68 0 000 3.36zm-4.8 4.824a1.68 1.68 0 11-3.36 0 1.68 1.68 0 013.36 0zm4.8 1.68a1.68 1.68 0 100-3.36 1.68 1.68 0 000 3.36zM24.92 16.53a1.68 1.68 0 11-3.36 0 1.68 1.68 0 013.36 0zm4.8 1.68a1.68 1.68 0 100-3.36 1.68 1.68 0 000 3.36z" fill="#fff"></path>
    <path fill-rule="evenodd" clip-rule="evenodd" d="M35.6 29.61a6 6 0 11-12 0 6 6 0 0112 0zm3.6 0a9.6 9.6 0 11-19.2 0 9.6 9.6 0 0119.2 0zm-9.12-2.4a1.2 1.2 0 10-2.4 0v3.6a1.2 1.2 0 001.2 1.2h2.88a1.2 1.2 0 000-2.4h-1.68v-2.4z" fill="#fff"></path>
  </symbol>
  <symbol fill="none" xmlns="http://www.w3.org/2000/svg" viewBox="0 0 48 48" id="mail">
    <path fill-rule="evenodd" clip-rule="evenodd" d="M8.603 12.885A1.69 1.69 0 0110.08 12h27.84c.633 0 1.191.36 1.477.885L24 23.663 8.603 12.885zm-3.803.774V34.56a5.29 5.29 0 005.28 5.28h27.84a5.29 5.29 0 005.28-5.28c0-2.322.007-4.645.015-6.968.014-4.637.029-9.274-.015-13.91v-.051c-.027-2.835-2.388-5.231-5.28-5.231H10.08a5.29 5.29 0 00-5.28 5.26zm34.8 3.478V34.56c0 .92-.76 1.68-1.68 1.68H10.08c-.92 0-1.68-.76-1.68-1.68V17.137l14.568 10.198a1.8 1.8 0 002.064 0L39.6 17.137z" fill="#fff"></path>
  </symbol>
  <symbol fill="none" xmlns="http://www.w3.org/2000/svg" viewBox="0 0 48 48" id="chat">
    <path fill-rule="evenodd" clip-rule="evenodd" d="M9.005 13.805a2.067 2.067 0 011.462-.605h27.068a2.067 2.067 0 012.067 2.067v19.335a2.067 2.067 0 01-2.066 2.067H14.333a1.8 1.8 0 00-1.273.527l-4.66 4.66v-26.59c0-.547.218-1.073.605-1.46zM10.467 9.6A5.667 5.667 0 004.8 15.267v30.935a1.8 1.8 0 003.073 1.273l7.206-7.206h22.456a5.667 5.667 0 005.667-5.667V15.267A5.667 5.667 0 0037.536 9.6h-27.07zm3.315 9.6a1.8 1.8 0 000 3.6H34.2a1.8 1.8 0 000-3.6H13.782zm.018 7.201a1.8 1.8 0 100 3.6h13.207a1.8 1.8 0 100-3.6H13.8z" fill="#fff"></path>
  </symbol>
  <symbol fill="none" xmlns="http://www.w3.org/2000/svg" viewBox="0 0 48 48" id="tasks">
    <path fill-rule="evenodd" clip-rule="evenodd" d="M12.2.8C5.904.8.8 5.904.8 12.2v15.6c0 6.296 5.104 11.4 11.4 11.4h15.6c6.296 0 11.4-5.104 11.4-11.4V12.2C39.2 5.904 34.096.8 27.8.8H12.2zM4.4 12.2a7.8 7.8 0 017.8-7.8h15.6a7.8 7.8 0 017.8 7.8v15.6a7.8 7.8 0 01-7.8 7.8H12.2a7.8 7.8 0 01-7.8-7.8V12.2zm24.206 4.782a1.8 1.8 0 10-2.422-2.664l-8.359 7.6-3.14-2.854a1.8 1.8 0 10-2.42 2.663l4.35 3.955a1.8 1.8 0 002.42 0l9.57-8.7z" fill="#fff"></path>
  </symbol>
  <symbol fill="none" xmlns="http://www.w3.org/2000/svg" viewBox="0 0 48 48" id="project">
    <path fill-rule="evenodd" clip-rule="evenodd" d="M23.195 4.99a1.8 1.8 0 011.61 0l17.4 8.7a1.8 1.8 0 010 3.22l-17.4 8.7a1.8 1.8 0 01-1.61 0l-17.4-8.7a1.8 1.8 0 010-3.22l17.4-8.7zM10.625 15.3L24 21.988 37.375 15.3 24 8.612 10.625 15.3zM4.99 31.895a1.8 1.8 0 012.415-.805L24 39.388l16.595-8.298a1.8 1.8 0 111.61 3.22l-17.4 8.7a1.8 1.8 0 01-1.61 0l-17.4-8.7a1.8 1.8 0 01-.805-2.415zm2.415-9.505a1.8 1.8 0 10-1.61 3.22l17.4 8.7a1.8 1.8 0 001.61 0l17.4-8.7a1.8 1.8 0 00-1.61-3.22L24 30.688 7.405 22.39z" fill="#fff"></path>
  </symbol>
  <symbol fill="none" xmlns="http://www.w3.org/2000/svg" viewBox="0 0 48 48" id="folder">
    <path fill-rule="evenodd" clip-rule="evenodd" d="M10.08 10.8a1.68 1.68 0 00-1.68 1.68v6.9h31.2V17.7a1.68 1.68 0 00-1.68-1.68H22.26a1.8 1.8 0 01-1.498-.801L17.817 10.8H10.08zM39.6 22.98H8.4v13.86a1.68 1.68 0 001.68 1.68h27.84a1.68 1.68 0 001.68-1.68V22.98zM6.346 8.746A5.28 5.28 0 0110.08 7.2h8.7a1.8 1.8 0 011.498.802l2.945 4.418H37.92a5.28 5.28 0 015.28 5.28v19.14a5.28 5.28 0 01-5.28 5.28H10.08a5.28 5.28 0 01-5.28-5.28V12.48c0-1.4.556-2.743 1.546-3.734z" fill="#fff"></path>
  </symbol>
  <symbol fill="none" xmlns="http://www.w3.org/2000/svg" viewBox="0 0 48 48" id="text">
    <path fill-rule="evenodd" clip-rule="evenodd" d="M12.48 4.8H26.4a1.8 1.8 0 011.273.527l10.44 10.44a1.8 1.8 0 01.527 1.273v20.88c0 2.876-2.404 5.28-5.28 5.28H12.48c-2.876 0-5.28-2.404-5.28-5.28V10.08c0-2.876 2.404-5.28 5.28-5.28zm0 3.6c-.891 0-1.68.789-1.68 1.68v27.84c0 .891.789 1.68 1.68 1.68h20.88c.891 0 1.68-.789 1.68-1.68V18.84H26.4a1.8 1.8 0 01-1.8-1.8V8.4H12.48zm15.72 2.546l4.294 4.294H28.2v-4.294zM14.16 18.78a1.8 1.8 0 011.8-1.8h3.48a1.8 1.8 0 110 3.6h-3.48a1.8 1.8 0 01-1.8-1.8zm1.8 5.16a1.8 1.8 0 000 3.6h13.92a1.8 1.8 0 100-3.6H15.96zm0 6.959a1.8 1.8 0 000 3.6h13.92a1.8 1.8 0 100-3.6H15.96z" fill="#fff"></path>
  </symbol>
  <symbol fill="none" xmlns="http://www.w3.org/2000/svg" viewBox="0 0 48 48" id="contacts">
    <path fill-rule="evenodd" clip-rule="evenodd" d="M11.547 9.147A2.55 2.55 0 0113.35 8.4h21.69v22.5H13.35a6.14 6.14 0 00-2.55.554V10.95c0-.676.269-1.325.747-1.803zM10.8 37.05a2.55 2.55 0 002.55 2.55h21.69v-5.1H13.35a2.55 2.55 0 00-2.55 2.55zm27.84-4.35V6.6a1.8 1.8 0 00-1.8-1.8H13.35a6.15 6.15 0 00-6.15 6.15v26.1a6.15 6.15 0 006.15 6.15h23.49a1.8 1.8 0 001.8-1.8v-8.7z" fill="#fff"></path>
  </symbol>
  <symbol fill="none" xmlns="http://www.w3.org/2000/svg" viewBox="0 0 24 15" id="arrow">
    <path fill-rule="evenodd" clip-rule="evenodd" d="M23.06.94a1.5 1.5 0 010 2.12L12 14.122.94 3.061A1.5 1.5 0 113.06.939L12 9.88 20.94.94a1.5 1.5 0 012.12 0z" fill="#fff"></path>
  </symbol>
  <symbol fill="none" xmlns="http://www.w3.org/2000/svg" viewBox="0 0 18 18" id="search">
    <path fill-rule="evenodd" clip-rule="evenodd" d="M2.05 7.9a5.85 5.85 0 1111.7 0 5.85 5.85 0 01-11.7 0zM7.9.55a7.35 7.35 0 104.64 13.05l3.904 3.905a.75.75 0 101.06-1.06l-3.903-3.905A7.35 7.35 0 007.9.55z" fill="#818386"></path>
  </symbol>
</svg>