<svg width="40" height="40" viewBox="0 0 40 40" fill="none" xmlns="http://www.w3.org/2000/svg">
<path d="M0 18.1333C0 11.15 0 7.65836 1.57184 5.09335C2.45137 3.65809 3.65809 2.45137 5.09335 1.57184C7.65836 0 11.15 0 18.1333 0H21.8667C28.85 0 32.3416 0 34.9067 1.57184C36.3419 2.45137 37.5486 3.65809 38.4282 5.09335C40 7.65836 40 11.15 40 18.1333V21.8667C40 28.85 40 32.3416 38.4282 34.9067C37.5486 36.3419 36.3419 37.5486 34.9067 38.4282C32.3416 40 28.85 40 21.8667 40H18.1333C11.15 40 7.65836 40 5.09335 38.4282C3.65809 37.5486 2.45137 36.3419 1.57184 34.9067C0 32.3416 0 28.85 0 21.8667V18.1333Z" fill="#FFBB5D"/>
<path d="M25.6959 31.6079V27.365H14.7855V31.6079L20.2407 36.4569L25.6959 31.6079Z" fill="#FFD7A3"/>
<path fill-rule="evenodd" clip-rule="evenodd" d="M36 37.6603C35.6529 37.9382 35.2878 38.1948 34.9066 38.4284C32.3416 40.0002 28.85 40.0002 21.8667 40.0002H18.1333C11.15 40.0002 7.65835 40.0002 5.09334 38.4284C4.88431 38.3003 4.68014 38.1653 4.48111 38.0236V35.9527C4.48111 34.8275 5.25512 33.8503 6.35036 33.5926L13.8508 31.8278C14.0639 31.7776 14.2515 31.6718 14.4026 31.5295L20.2406 35.2446L26.3155 31.7009C26.413 31.7558 26.5172 31.8011 26.6305 31.8277L34.1309 33.5925C35.2261 33.8501 36.0001 34.8275 36 35.9527V37.6603Z" fill="#8B63E7"/>
<path d="M14.7855 27.3651V31.8417C21.6576 34.3176 25.6959 28.1209 25.6959 28.1209V27.365H14.7855V27.3651Z" fill="#F0C290"/>
<path d="M12.361 13.4241L12.8891 25.0445C12.9385 26.13 13.4708 27.1367 14.3401 27.7887L16.8463 29.6684C17.4758 30.1405 18.2415 30.3958 19.0284 30.3958H21.453C22.2399 30.3958 23.0055 30.1406 23.6351 29.6684L26.1413 27.7887C27.0106 27.1367 27.5429 26.1301 27.5922 25.0445L28.1204 13.4241C28.1203 13.4241 12.361 13.4241 12.361 13.4241Z" fill="#FFE1B2"/>
<path fill-rule="evenodd" clip-rule="evenodd" d="M21.6225 40H18.8574L19.1035 36.457H21.3765L21.6225 40Z" fill="#5B5D6E"/>
<path d="M21.756 35.2446H18.7253V36.3854C18.7253 36.7597 19.0287 37.0631 19.403 37.0631H21.0783C21.4526 37.0631 21.756 36.7597 21.756 36.3854V35.2446H21.756Z" fill="#515262"/>
<path d="M14.7004 30.2582L20.2407 35.2444C20.2407 35.2444 18.6891 36.0277 16.7744 37.6064C16.3794 37.9321 15.782 37.8002 15.5701 37.3341L12.9672 31.6077L13.7906 30.3726C13.9955 30.0649 14.4257 30.011 14.7004 30.2582Z" fill="white"/>
<path d="M25.7811 30.2582L20.2408 35.2444C20.2408 35.2444 21.7924 36.0277 23.7071 37.6064C24.102 37.9321 24.6995 37.8002 24.9113 37.3341L27.5143 31.6077L26.6909 30.3726C26.4859 30.0649 26.0558 30.011 25.7811 30.2582Z" fill="white"/>
<path d="M23.9153 9.4083L24.4835 13.4239C27.0774 13.9427 27.4513 18.0134 27.5051 19.1761C27.5148 19.3871 27.5822 19.5909 27.6967 19.7684L28.6864 21.3036C28.6864 21.3036 28.3476 18.7654 29.8986 17.0607C29.8987 17.0607 30.4313 6.98373 23.9153 9.4083Z" fill="#4E1E30"/>
<path d="M29.2944 21.0453L28.6101 23.7825C28.529 24.1069 28.2376 24.3344 27.9031 24.3344C27.5356 24.3344 27.2256 24.0608 27.18 23.6961L26.83 20.8965C26.7363 20.1472 27.3206 19.4854 28.0758 19.4854H28.0763C28.8932 19.4854 29.4925 20.2529 29.2944 21.0453Z" fill="#FFE1B2"/>
<path d="M12.9419 8.32231L13.8385 8.93476C9.78497 11.9275 10.5426 17.0607 10.5426 17.0607C11.7548 18.273 11.7548 21.3037 11.7548 21.3037L12.9671 20.0914C12.9671 20.0914 12.4992 16.5896 14.7854 15.2424C16.9069 13.9922 18.7632 14.6362 20.6574 14.6362C25.7337 14.6362 27.1544 12.7231 26.9081 10.3933C26.7807 9.18779 24.9375 6.67664 20.2407 6.7565C18.3452 6.7887 14.7856 7.36262 12.9419 8.32231Z" fill="#66273F"/>
<path d="M12.5883 14.1059C12.5883 14.1059 11.9443 11.5676 13.8385 8.93481C9.78497 11.9276 10.5426 17.0608 10.5426 17.0608C11.7548 18.2731 11.7548 21.3037 11.7548 21.3037L12.9671 20.0915C12.9671 20.0915 12.4992 16.5896 14.7854 15.2424C16.9069 13.9923 18.7632 14.6363 20.6574 14.6363C21.483 14.6363 22.2024 14.581 22.8432 14.4863C18.9338 14.6173 16.6293 11.656 12.5883 14.1059Z" fill="#4E1E30"/>
<path d="M11.187 21.0453L11.8713 23.7825C11.9524 24.1069 12.2438 24.3344 12.5783 24.3344C12.9458 24.3344 13.2558 24.0608 13.3014 23.6961L13.6514 20.8965C13.7451 20.1472 13.1608 19.4854 12.4056 19.4854H12.4051C11.5882 19.4854 10.9889 20.2529 11.187 21.0453Z" fill="#FFE1B2"/>
</svg>
