<svg width="40" height="40" viewBox="0 0 40 40" fill="none" xmlns="http://www.w3.org/2000/svg">
<g clip-path="url(#clip0)">
<path d="M0 18.1333C0 11.15 0 7.65836 1.57184 5.09335C2.45137 3.65809 3.65809 2.45137 5.09335 1.57184C7.65836 0 11.15 0 18.1333 0H21.8667C28.85 0 32.3416 0 34.9067 1.57184C36.3419 2.45137 37.5486 3.65809 38.4282 5.09335C40 7.65836 40 11.15 40 18.1333V21.8667C40 28.85 40 32.3416 38.4282 34.9067C37.5486 36.3419 36.3419 37.5486 34.9067 38.4282C32.3416 40 28.85 40 21.8667 40H18.1333C11.15 40 7.65836 40 5.09335 38.4282C3.65809 37.5486 2.45137 36.3419 1.57184 34.9067C0 32.3416 0 28.85 0 21.8667V18.1333Z" fill="#FF9054"/>
<path d="M12.9256 26.8636C11.159 22.4067 7.44806 18.3731 12.1177 10.2482C14.0409 6.90197 16.9786 4.69509 20.0133 5.44228C23.0481 4.69517 25.9858 6.90206 27.909 10.2482C32.5784 18.3731 28.8678 22.4067 27.1009 26.8636L20.0136 26.8812L12.9259 26.8636H12.9256Z" fill="#1F0951"/>
<path fill-rule="evenodd" clip-rule="evenodd" d="M33.222 39.1998C30.7925 40 27.4426 40 21.8667 40H18.1333C12.5573 40 9.20746 40 6.77797 39.1998C7.02564 38.2301 7.26131 37.1648 7.46627 36.2382C7.73802 35.0098 7.9558 34.0253 8.07605 33.8312C9.58786 31.3902 11.4646 30.5221 13.1144 29.759C15.1759 28.8054 16.8831 28.0158 17.0813 24.5257C17.0813 24.5257 18.6518 25.7287 19.9405 25.7172C21.2291 25.7057 22.9168 24.4463 22.9168 24.4463C23.1158 27.9457 24.8286 28.7549 26.8952 29.7312C28.5424 30.5094 30.4143 31.3938 31.9238 33.8312C32.0439 34.025 32.2615 35.0086 32.5331 36.2361C32.7381 37.1632 32.974 38.2295 33.222 39.1998Z" fill="#FFD7A3"/>
<path d="M23.0081 25.3343C22.9659 25.0587 22.9347 24.7639 22.9168 24.4463C22.9168 24.4463 21.2291 25.7057 19.9405 25.7172C18.6517 25.7287 17.0813 24.5257 17.0813 24.5257C17.0631 24.8491 17.0311 25.1483 16.9875 25.4276C17.0206 25.4537 17.0533 25.4801 17.0869 25.506L17.0865 25.5105C17.1857 25.5969 18.6943 26.8941 19.9402 26.881C21.1862 26.894 22.6945 25.5967 22.7939 25.5105L22.7936 25.506C22.8668 25.4499 22.9378 25.3922 23.0079 25.3345L23.0081 25.3343Z" fill="#F0C290"/>
<path d="M17.0868 24.5299C17.186 24.6048 18.6945 25.7285 19.9405 25.7172C21.1864 25.7285 22.6948 24.6046 22.7941 24.5299C24.6774 23.432 26.2226 20.195 25.8738 16.6868C25.5882 13.8131 22.4794 18.0267 20.3143 12.0974C17.2498 18.5168 14.3392 14.7196 14.0073 17.1524C13.6416 19.8328 15.1464 23.2056 17.0868 24.5301V24.5299Z" fill="#FFE1B2"/>
<path fill-rule="evenodd" clip-rule="evenodd" d="M33.2568 39.1884C30.8245 40.0002 27.4694 40.0002 21.8667 40.0002H18.1333C12.5298 40.0002 9.1744 40.0002 6.742 39.188C7.03373 37.8858 7.31017 36.2297 7.54122 34.8454C7.77778 33.4282 7.96675 32.2961 8.07582 32.1208C8.92085 30.7622 10.6665 30.2801 12.2919 29.8313C13.1492 29.5945 13.9731 29.367 14.6136 29.025L14.6141 29.0257C18.0531 40.0577 22.3553 39.3438 25.2417 28.8716C25.8664 29.207 26.7301 29.4398 27.634 29.6834C29.4163 30.1638 31.3545 30.6863 31.9233 32.1208C31.989 32.2863 32.1378 33.1512 32.3341 34.2924C32.5879 35.7674 32.9211 37.704 33.2568 39.1884ZM14.6138 29.0248C14.6137 29.0249 14.6137 29.0249 14.6136 29.025L14.6135 29.0248H14.6138ZM14.6138 29.0248C14.6139 29.0248 14.6139 29.0248 14.614 29.0248V29.0248H14.6138Z" fill="#3A63DE"/>
<path d="M15.8508 27.9841C15.7303 31.2422 16.2843 35.858 19.94 37.0376C16.4983 37.1815 14.2649 32.2225 11.7207 30.9236L15.8508 27.9844V27.9841H15.8508Z" fill="white"/>
<path d="M24.2343 27.9841C24.3606 31.2422 23.7791 35.858 19.9402 37.0376C23.5543 37.1815 25.8996 32.2225 28.5708 30.9236L24.2341 27.9844L24.2343 27.9841Z" fill="white"/>
</g>
<defs>
<clipPath id="clip0">
<rect width="40" height="40" fill="white"/>
</clipPath>
</defs>
</svg>
