<svg width="40" height="40" viewBox="0 0 40 40" fill="none" xmlns="http://www.w3.org/2000/svg">
<path d="M0 18.1333C0 11.15 0 7.65836 1.57184 5.09335C2.45137 3.65809 3.65809 2.45137 5.09335 1.57184C7.65836 0 11.15 0 18.1333 0H21.8667C28.85 0 32.3416 0 34.9067 1.57184C36.3419 2.45137 37.5486 3.65809 38.4282 5.09335C40 7.65836 40 11.15 40 18.1333V21.8667C40 28.85 40 32.3416 38.4282 34.9067C37.5486 36.3419 36.3419 37.5486 34.9067 38.4282C32.3416 40 28.85 40 21.8667 40H18.1333C11.15 40 7.65836 40 5.09335 38.4282C3.65809 37.5486 2.45137 36.3419 1.57184 34.9067C0 32.3416 0 28.85 0 21.8667V18.1333Z" fill="#FDC8A6"/>
<path d="M25.0769 6.28149L21.1283 27.7172L23.9488 28.2813C29.9188 23.9095 32.4806 6.28149 25.0769 6.28149Z" fill="#4E1E30"/>
<path d="M25.0772 6.28144C24.09 5.68205 18.8799 4.15983 14.9234 6.28144C10.0581 8.89039 5.80382 18.2215 12.667 27.7171C12.6768 27.7306 17.7439 27.1531 17.7439 27.1531L25.0772 6.28144Z" fill="#4E1E30"/>
<path fill-rule="evenodd" clip-rule="evenodd" d="M25.077 39.9925C24.0958 39.9998 23.0297 39.9998 21.8667 39.9998H18.1333C16.9704 39.9998 15.9043 39.9998 14.9232 39.9925V28.6234C16.046 27.7756 16.0514 26.374 16.0514 25.0845V23.7683H23.9487V25.0859H23.9794C23.9794 26.3643 23.9829 27.7537 25.077 28.6037V39.9925Z" fill="#FFD7A3"/>
<path fill-rule="evenodd" clip-rule="evenodd" d="M24.5129 39.996C23.6904 39.9999 22.8104 39.9999 21.8667 39.9999H18.1333C17.608 39.9999 17.1025 39.9999 16.6156 39.9992V35.1742C17.6425 35.4535 18.7871 35.6143 20.0002 35.6143C21.6794 35.6143 23.2332 35.3127 24.5129 34.802V39.996Z" fill="#FF9054"/>
<path d="M24.5128 31.1017C24.7187 31.1578 24.904 31.1878 25.0769 31.2023V28.6038C23.9829 27.7539 23.9794 26.3644 23.9794 25.0859L23.9786 25.0532V23.7356L17.7436 23.7683L16.0514 24.3324C17.1796 25.6017 20.6347 30.044 24.5128 31.1017Z" fill="#FDC88E"/>
<path d="M27.8978 16.4349C27.8978 20.9522 23.4051 26.5886 20.0005 26.5886C16.5958 26.5886 12.1031 20.9522 12.1031 16.4349C12.1031 11.9175 15.6389 10.2297 20.0005 10.2297C24.362 10.2297 27.8978 11.9175 27.8978 16.4349Z" fill="#FFE1B2"/>
<path d="M21.1282 7.40967C20.8113 7.40967 19.7823 7.76577 18.9412 8.07781L18.8719 7.97374C18.8719 7.97374 18.7558 8.06495 18.5549 8.22303C18.0871 8.40065 17.7437 8.53781 17.7437 8.53781L17.8757 8.75778C15.7346 10.4447 10.8496 14.3036 10.4104 14.7429C9.84632 15.307 13.795 29.6988 13.795 21.5121C13.795 14.6725 17.5949 13.3179 21.1282 12.4866C22.7265 12.1105 23.1966 11.1703 23.3846 10.2302C23.5727 9.29005 21.6924 7.40967 21.1282 7.40967Z" fill="#4E1E30"/>
<path d="M22.8206 10.7942C23.8548 14.5078 25.9232 16.1884 27.8623 16.682C28.9248 16.9525 28.4617 13.6147 28.4617 13.6147C28.4617 13.6147 26.9574 9.76004 26.7694 9.66609C26.5814 9.57205 25.0771 6.28149 25.0771 6.28149L21.6925 9.10202L22.8206 10.7942Z" fill="#4E1E30"/>
<path fill-rule="evenodd" clip-rule="evenodd" d="M18.3126 39.9999H18.1333C11.3656 39.9999 7.87722 39.9999 5.33358 38.5692V35.6144C5.33358 32.1874 8.11175 29.4093 11.5387 29.4093H11.7267C13.9372 29.4093 15.0143 28.8059 15.5427 27.9475L18.3126 39.9999Z" fill="#37CFD1"/>
<path fill-rule="evenodd" clip-rule="evenodd" d="M34.6667 38.569C32.123 39.9999 28.6347 39.9999 21.8667 39.9999H21.6876L24.4576 27.9475C24.9859 28.8059 26.0631 29.4093 28.2736 29.4093H28.4616C31.8885 29.4093 34.6667 32.1874 34.6667 35.6144V38.569Z" fill="#37CFD1"/>
<path d="M27.0572 16.4866C27.9802 16.275 28.5849 16.7271 28.5849 17.6148C28.5849 18.79 27.3436 21.6693 26.0387 19.8712C24.7338 18.0731 27.0572 16.4866 27.0572 16.4866Z" fill="#FFE1B2"/>
</svg>
