<svg width="21" height="21" viewBox="0 0 21 21" fill="none" xmlns="http://www.w3.org/2000/svg">
<path d="M18.0206 0.15741L1.2404 7.09582C0.533448 7.3881 0.0602161 8.04375 0.005296 8.80673C-0.0495667 9.56978 0.324964 10.2864 0.982762 10.6769L5.79195 13.3749C6.52801 12.6388 12.2075 8.59253 12.2075 8.59253C12.2075 8.59253 8.16121 14.272 7.42514 15.0081L10.1231 19.8172C10.5136 20.475 11.2302 20.8496 11.9932 20.7947C12.7578 20.7396 13.4124 20.2652 13.7042 19.5596L20.6426 2.77933C20.9585 2.01534 20.7916 1.17759 20.207 0.593003C19.6224 0.00841181 18.7846 -0.158557 18.0206 0.15741Z" fill="white"/>
</svg>
