<svg width="40" height="40" viewBox="0 0 40 40" fill="none" xmlns="http://www.w3.org/2000/svg">
<path d="M0 18.1333C0 11.15 0 7.65836 1.57184 5.09335C2.45137 3.65809 3.65809 2.45137 5.09335 1.57184C7.65836 0 11.15 0 18.1333 0H21.8667C28.85 0 32.3416 0 34.9067 1.57184C36.3419 2.45137 37.5486 3.65809 38.4282 5.09335C40 7.65836 40 11.15 40 18.1333V21.8667C40 28.85 40 32.3416 38.4282 34.9067C37.5486 36.3419 36.3419 37.5486 34.9067 38.4282C32.3416 40 28.85 40 21.8667 40H18.1333C11.15 40 7.65836 40 5.09335 38.4282C3.65809 37.5486 2.45137 36.3419 1.57184 34.9067C0 32.3416 0 28.85 0 21.8667V18.1333Z" fill="#37CFD1"/>
<path d="M27.6756 13.6743V19.4071C27.6756 19.49 27.6738 19.5729 27.6718 19.6557C27.6699 19.7236 27.6681 19.7896 27.6642 19.8576C27.6624 19.9179 27.6586 19.9783 27.6529 20.0386C27.651 20.0819 27.6472 20.1253 27.6435 20.1686C27.6415 20.1952 27.6397 20.2194 27.6358 20.246C27.6322 20.2931 27.6283 20.342 27.6208 20.3892C27.6133 20.4795 27.6019 20.5683 27.5887 20.6587C27.5869 20.6814 27.583 20.704 27.5794 20.7265C27.5737 20.7718 27.5662 20.8171 27.5586 20.8622V20.8679C27.5475 20.9337 27.5361 20.9979 27.5247 21.0639C27.5077 21.1543 27.4908 21.2449 27.4719 21.3334C27.4701 21.3373 27.4701 21.3411 27.4682 21.345C27.4664 21.358 27.4644 21.3714 27.4607 21.3846C27.4589 21.3884 27.4589 21.3921 27.4569 21.396C27.4475 21.4451 27.4362 21.492 27.4248 21.5392C27.4211 21.5599 27.4173 21.5808 27.4098 21.6015C27.4041 21.6354 27.3945 21.6692 27.3872 21.7033C27.3815 21.7221 27.3779 21.7429 27.3701 21.7616C27.3663 21.7786 27.3608 21.7957 27.3569 21.8107C27.3173 21.9653 27.2721 22.1162 27.2249 22.2669C27.2022 22.3386 27.1796 22.4083 27.1553 22.48C27.1534 22.4875 27.1496 22.495 27.1477 22.5025C27.1252 22.5667 27.1025 22.6307 27.0799 22.6948C27.0724 22.7137 27.0649 22.7324 27.0573 22.7532C27.0346 22.8135 27.0121 22.8738 26.9877 22.9341C26.9594 23.0075 26.9292 23.0792 26.8991 23.151C26.8727 23.2152 26.8445 23.279 26.8162 23.3432C26.8126 23.3547 26.8069 23.3639 26.803 23.3753C26.7709 23.4431 26.7409 23.511 26.7088 23.5771C26.6767 23.6468 26.6428 23.7167 26.607 23.7865C26.5392 23.9241 26.4657 24.0618 26.3921 24.1954L26.2904 24.3764C25.9999 24.876 25.6778 25.3452 25.327 25.7789C25.2799 25.841 25.2309 25.9014 25.18 25.9597C25.1103 26.0446 25.0386 26.1274 24.9669 26.2085C24.9027 26.2802 24.8387 26.3517 24.7727 26.4215C24.5918 26.6157 24.4069 26.8003 24.2185 26.974C24.1807 27.0116 24.1413 27.0457 24.1017 27.0814C24.0375 27.1397 23.9735 27.1964 23.9075 27.251C23.8567 27.2963 23.8039 27.3396 23.7509 27.383C23.6152 27.4942 23.4795 27.6016 23.3418 27.7015C23.2854 27.745 23.2269 27.7864 23.1684 27.826C23.0741 27.8939 22.9779 27.958 22.8818 28.0204C22.829 28.0561 22.7744 28.0901 22.7197 28.1222C22.5274 28.2408 22.3332 28.3502 22.1409 28.4445C22.0937 28.4691 22.0466 28.4918 21.9995 28.5143C21.9524 28.5369 21.9034 28.5596 21.8524 28.5822C21.7903 28.6104 21.7279 28.6368 21.6658 28.6614C21.6412 28.6726 21.6168 28.6821 21.5923 28.6896C21.5187 28.7199 21.4434 28.7479 21.3699 28.7725C21.2776 28.8066 21.1832 28.8349 21.091 28.8611C21.0268 28.88 20.961 28.8968 20.8968 28.9119C20.8929 28.9139 20.8893 28.9157 20.8836 28.9157C20.8194 28.9309 20.7554 28.946 20.6913 28.9573C20.6744 28.9612 20.6573 28.9649 20.6405 28.9669C20.5877 28.9762 20.5349 28.9858 20.482 28.9914C20.4067 29.0028 20.3311 29.0122 20.2558 29.0158C20.2294 29.0197 20.205 29.0215 20.1786 29.0215C20.1183 29.0252 20.058 29.0272 19.9995 29.0272H19.9938C19.9355 29.0272 19.877 29.0252 19.8185 29.0215C19.7959 29.0215 19.7732 29.0197 19.7506 29.0158C19.6978 29.014 19.6432 29.0083 19.5865 29.0008C19.5754 29.0008 19.5622 28.999 19.5508 28.9969C19.4811 28.9876 19.4113 28.9762 19.3397 28.963C19.2794 28.9535 19.2191 28.9403 19.1568 28.9252C18.8344 28.8517 18.5027 28.7404 18.1672 28.5917C17.8806 28.4654 17.5904 28.3127 17.3019 28.1355C17.1569 28.047 17.0117 27.9527 16.8683 27.8528C16.7966 27.8018 16.7251 27.7509 16.6534 27.6981C16.429 27.534 16.2066 27.355 15.988 27.1627C15.9277 27.108 15.8674 27.0534 15.807 26.9969C15.7467 26.9423 15.6864 26.8856 15.6279 26.831C15.4809 26.6896 15.3377 26.5427 15.1981 26.39C15.1435 26.3315 15.0888 26.2714 15.034 26.209C14.8833 26.0394 14.7363 25.8641 14.5967 25.6811C14.5421 25.6153 14.4911 25.5475 14.4403 25.4795C14.2498 25.2268 14.069 24.9629 13.8992 24.6894C13.8539 24.616 13.8087 24.5407 13.7654 24.467C13.7126 24.3784 13.6618 24.2878 13.6108 24.1974C13.4223 23.858 13.2489 23.5056 13.0982 23.1417C13.0754 23.0889 13.0529 23.0361 13.034 22.9834C13.0039 22.9156 12.9775 22.8457 12.9529 22.7779C12.9152 22.678 12.8794 22.578 12.8455 22.4781C12.8116 22.3782 12.7795 22.2762 12.7474 22.1747C12.7173 22.0766 12.6891 21.9787 12.6627 21.8787C12.6324 21.7731 12.6042 21.6657 12.5796 21.5564C12.5778 21.545 12.5739 21.5337 12.5721 21.5223C12.5364 21.3716 12.5043 21.2188 12.476 21.0643C12.4383 20.8607 12.4082 20.6534 12.3856 20.444C12.3761 20.3782 12.3704 20.312 12.3649 20.2461C12.3574 20.1763 12.3517 20.1084 12.3479 20.0388C12.3385 19.9124 12.3328 19.7841 12.329 19.6559C12.3272 19.573 12.3251 19.4902 12.3251 19.4073V13.6743C12.3251 9.43827 15.7579 6.00367 19.9938 6H20.0015C20.5858 6 21.1551 6.06582 21.7017 6.18849C22.2014 6.30144 22.6821 6.4637 23.1381 6.66906C23.7603 6.94795 24.3389 7.3064 24.8593 7.73436C25.2968 8.09245 25.6945 8.49583 26.0414 8.94083C27.0518 10.2284 27.6606 11.8459 27.6738 13.6065C27.6756 13.629 27.6756 13.6516 27.6756 13.6743Z" fill="#FFE1B2"/>
<path fill-rule="evenodd" clip-rule="evenodd" d="M29.9516 39.8122C27.8995 40.0001 25.3067 40.0001 21.8666 40.0001H18.1333C14.6935 40.0001 12.1009 40.0001 10.049 39.8122C10.1251 39.0367 10.2899 38.2867 10.5341 37.5741C10.5963 37.3913 10.6641 37.2103 10.7378 37.0312V37.0292C10.8095 36.85 10.8886 36.6747 10.9714 36.5015C11.3013 35.8058 11.7124 35.1553 12.1893 34.5597C12.3099 34.4107 12.4324 34.2655 12.5587 34.1261C12.6175 34.0584 12.6796 33.9926 12.742 33.9266L12.7529 33.9151C12.8187 33.8472 12.8849 33.7794 12.9526 33.7115C13.2901 33.374 13.6519 33.065 14.0329 32.7803C14.2232 32.6389 14.4156 32.5069 14.6154 32.3789C14.8153 32.2526 15.0188 32.1317 15.2262 32.0188C15.23 32.0151 15.2337 32.0151 15.2337 32.0151C15.3147 31.9717 15.394 31.9246 15.4732 31.8756C15.7088 31.7342 15.935 31.5776 16.1499 31.4044C17.0605 30.6805 17.7655 29.7076 18.167 28.5917C18.4065 27.9243 18.5365 27.2061 18.5365 26.4558L19.9936 26.4633L21.4923 26.471C21.4923 27.2118 21.6187 27.9225 21.8524 28.5824C22.2483 29.7021 22.9515 30.6787 23.862 31.4062C23.9977 31.5175 24.1354 31.6193 24.2804 31.7155C24.2957 31.7267 24.3087 31.7361 24.3239 31.7456C24.3917 31.7909 24.4596 31.836 24.5313 31.8776C24.6085 31.9247 24.6877 31.9719 24.7669 32.0153C24.7801 32.019 24.7914 32.0247 24.8008 32.0322C24.9667 32.1246 25.1307 32.2207 25.2909 32.3206C25.3683 32.3677 25.4455 32.4167 25.5208 32.4713C25.6774 32.5713 25.83 32.6807 25.979 32.7938C25.979 32.7947 25.9795 32.7952 25.9799 32.7954C25.9804 32.7957 25.9809 32.7957 25.9809 32.7957H25.9827C26.1732 32.937 26.3578 33.0879 26.5388 33.2425C26.7198 33.3973 26.8932 33.5592 27.061 33.7271C28.6586 35.3176 29.7186 37.4418 29.9516 39.8122Z" fill="#F0C290"/>
<path fill-rule="evenodd" clip-rule="evenodd" d="M29.9509 39.8122C27.899 40 25.3064 40 21.8666 40H18.1333C14.6932 40 12.1004 40 10.0483 39.8121C10.1245 39.0363 10.2893 38.286 10.5336 37.5733C10.5957 37.3905 10.6638 37.2096 10.7371 37.0304V37.0284C10.8088 36.8493 10.888 36.674 10.9709 36.5005C11.3007 35.8051 11.7116 35.1545 12.1887 34.5588C12.3094 34.4099 12.432 34.2647 12.5582 34.1254C12.6203 34.0537 12.6863 33.984 12.7524 33.9143L12.7524 33.9143C12.8184 33.8465 12.8844 33.7786 12.9522 33.7108C13.2896 33.3732 13.6515 33.0643 14.0324 32.7795C14.2229 32.6382 14.415 32.5061 14.6149 32.378C14.7185 32.3122 14.8222 32.248 14.9277 32.1858C15.0258 32.1273 15.1257 32.0707 15.2256 32.016C15.2295 32.0122 15.2331 32.0142 15.2331 32.0142V32.0122C15.3142 31.9669 15.3934 31.9218 15.4726 31.8745C15.7082 31.7313 15.9345 31.5729 16.1455 31.3994C16.1473 31.4014 16.1474 31.4014 16.1494 31.4032L16.1494 31.4033C17.1259 32.4024 18.4851 33.0227 19.9932 33.0265H20.0084C21.5165 33.0265 22.8813 32.4044 23.8617 31.4053L23.8635 31.4033C23.9973 31.5146 24.1369 31.6183 24.2801 31.7144C24.2951 31.7256 24.3083 31.735 24.3233 31.7445C24.3855 31.786 24.4494 31.8258 24.5133 31.8657L24.5307 31.8765C24.6079 31.9236 24.6873 31.9689 24.7663 32.0122C24.7752 32.0148 24.7825 32.0191 24.7897 32.0233C24.7931 32.0253 24.7966 32.0274 24.8002 32.0292C24.8888 32.0784 24.9794 32.1292 25.0661 32.1818C25.1417 32.2271 25.217 32.2724 25.2905 32.3195C25.3677 32.3666 25.4451 32.4156 25.5205 32.4702C25.677 32.5701 25.8296 32.6796 25.9785 32.7927H25.9823C26.1727 32.9359 26.3593 33.085 26.5385 33.2412C26.7194 33.396 26.8929 33.5581 27.0606 33.7258C28.6582 35.3168 29.7182 37.4412 29.9509 39.8122Z" fill="#FF9054"/>
<path d="M27.6756 19.4072C27.6756 19.4901 27.6738 19.573 27.6718 19.6559C27.6699 19.7237 27.6681 19.7897 27.6642 19.8577C27.6624 19.9181 27.6586 19.9784 27.6529 20.0387C27.651 20.082 27.6472 20.1254 27.6435 20.1687C27.6415 20.1953 27.6397 20.2195 27.6358 20.2461C27.6322 20.2932 27.6283 20.3422 27.6208 20.3893C27.6113 20.4797 27.6019 20.5701 27.5887 20.6588C27.5869 20.6815 27.583 20.7041 27.5794 20.7266C27.5737 20.7719 27.5662 20.8172 27.5586 20.8623C27.5493 20.9302 27.5361 20.998 27.5247 21.0642C27.5097 21.1434 27.4945 21.2206 27.4776 21.2978C27.4756 21.3149 27.4719 21.3299 27.4681 21.3451C27.4662 21.3581 27.4624 21.3715 27.4605 21.3847C27.4587 21.3886 27.4587 21.3922 27.4567 21.3961C27.4567 21.4054 27.4549 21.4131 27.453 21.4206C27.4437 21.4603 27.436 21.4999 27.4248 21.5393C27.4211 21.56 27.4173 21.5809 27.4098 21.6016C27.4021 21.6392 27.3927 21.675 27.3815 21.7109C27.3797 21.728 27.3758 21.745 27.3701 21.7617C27.3663 21.7787 27.3608 21.7958 27.3569 21.8108C27.3173 21.9654 27.2721 22.1163 27.2249 22.267C27.2022 22.3387 27.1796 22.4084 27.1553 22.4801C27.1534 22.4876 27.1496 22.4951 27.1477 22.5026C27.1252 22.5668 27.1025 22.6308 27.0799 22.695C27.0724 22.7139 27.0649 22.7326 27.0573 22.7533C27.0346 22.8136 27.0121 22.8739 26.9877 22.9342C26.9594 23.0076 26.9292 23.0793 26.8991 23.1512C26.8727 23.2153 26.8445 23.2791 26.8162 23.3433C26.8126 23.3549 26.8069 23.364 26.803 23.3754C26.7709 23.4432 26.7409 23.5111 26.7088 23.5773C26.6767 23.6469 26.6428 23.7168 26.607 23.7867C26.5392 23.9242 26.4657 24.0619 26.3921 24.1955L26.2904 24.3765C25.9999 24.8762 25.6778 25.3454 25.327 25.779C25.2799 25.8412 25.2309 25.9015 25.18 25.9598C25.1103 26.0447 25.0386 26.1276 24.9669 26.2086C24.9027 26.2803 24.8387 26.3518 24.7727 26.4217C24.5918 26.6158 24.4069 26.8005 24.2185 26.9741C24.1807 27.0117 24.1413 27.0458 24.1017 27.0816C24.0375 27.1399 23.9735 27.1965 23.9075 27.2512C23.8567 27.2964 23.8039 27.3397 23.7509 27.3832C23.6152 27.4943 23.4795 27.6017 23.3418 27.7017C23.2854 27.7451 23.2269 27.7866 23.1684 27.8262C23.0741 27.894 22.9779 27.9582 22.8818 28.0205C22.829 28.0563 22.7744 28.0902 22.7197 28.1223C22.5274 28.2409 22.3332 28.3504 22.1409 28.4446C22.0937 28.4692 22.0466 28.4919 21.9995 28.5145C21.9524 28.537 21.9034 28.5598 21.8524 28.5823C21.7903 28.6106 21.7279 28.637 21.6658 28.6615C21.6412 28.6727 21.6168 28.6822 21.5923 28.6898C21.5187 28.72 21.4434 28.7481 21.3699 28.7726C21.2776 28.8067 21.1832 28.835 21.091 28.8612C21.0268 28.8801 20.961 28.897 20.8968 28.912C20.8929 28.914 20.8893 28.9158 20.8836 28.9158C20.8194 28.9311 20.7554 28.9461 20.6913 28.9575C20.6744 28.9613 20.6573 28.965 20.6405 28.967C20.5877 28.9763 20.5349 28.9859 20.482 28.9916C20.4067 29.0029 20.3311 29.0123 20.2558 29.016C20.2294 29.0198 20.205 29.0216 20.1786 29.0216C20.1183 29.0253 20.058 29.0273 19.9995 29.0273H19.9938C19.9355 29.0273 19.877 29.0253 19.8185 29.0216C19.7959 29.0216 19.7732 29.0198 19.7506 29.016C19.6978 29.0141 19.6432 29.0084 19.5865 29.0009C19.5754 29.0009 19.5622 28.9991 19.5508 28.9971C19.4811 28.9877 19.4113 28.9763 19.3397 28.9631C19.2794 28.9536 19.2191 28.9404 19.1568 28.9254C18.8344 28.8518 18.5027 28.7406 18.1672 28.5918C17.8806 28.4655 17.5904 28.3128 17.3019 28.1357C17.1569 28.0489 17.0135 27.9547 16.8683 27.8529C16.7966 27.802 16.7251 27.751 16.6534 27.6982C16.429 27.5341 16.2066 27.3551 15.988 27.1628C15.9277 27.1081 15.8674 27.0535 15.807 26.997C15.7467 26.9424 15.6864 26.8857 15.6279 26.8311C15.4809 26.6897 15.3377 26.5429 15.1981 26.3901C15.1435 26.3316 15.0888 26.2715 15.034 26.2092C14.8833 26.0395 14.7363 25.8643 14.5967 25.6813C14.5421 25.6154 14.4911 25.5476 14.4403 25.4796C14.2498 25.2269 14.069 24.9631 13.8992 24.6895C13.8539 24.6162 13.8087 24.5408 13.7654 24.4671C13.7126 24.3785 13.6618 24.288 13.6108 24.1976C13.4223 23.8582 13.2489 23.5058 13.0982 23.1418C13.0754 23.089 13.0529 23.0362 13.034 22.9836C13.0039 22.9157 12.9775 22.8459 12.9529 22.778C12.9152 22.6781 12.8794 22.5782 12.8455 22.4782C12.8116 22.3783 12.7795 22.2764 12.7474 22.1748C12.7173 22.0767 12.6891 21.9788 12.6627 21.8789C12.6324 21.7732 12.6042 21.6658 12.5796 21.5565C12.5778 21.5451 12.5739 21.5338 12.5721 21.5224C12.5364 21.3717 12.5043 21.219 12.476 21.0644C12.4383 20.8609 12.4082 20.6535 12.3856 20.4441C12.3761 20.3783 12.3704 20.3121 12.3649 20.2463C12.3574 20.1764 12.3517 20.1086 12.3479 20.0389C12.3385 19.9126 12.3328 19.7842 12.329 19.656C12.3272 19.5732 12.3251 19.4903 12.3251 19.4074L13.5505 21.8167L15.6561 22.7348L18.1461 22.9588H18.1479L19.9934 23.1266H20.0048L21.7314 23.283C21.7314 23.283 21.7314 23.2812 21.7333 23.283L25.5846 23.6301L27.6756 19.4072Z" fill="#4E1E30"/>
<path d="M20.0088 20.6181L20.007 22.4749V22.4767L20.0052 23.1273V23.6381L20.0033 25.3347V25.3367L20.0015 25.3347H19.9997L19.994 25.3308L12.5795 21.5568C12.5776 21.5455 12.5738 21.5341 12.572 21.5227C12.5362 21.372 12.5041 21.2193 12.4759 21.0647C12.4381 20.8612 12.408 20.6538 12.3855 20.4444C12.376 20.3786 12.3703 20.3124 12.3648 20.2466C12.3573 20.1767 12.3516 20.1089 12.3477 20.0392C12.3384 19.9129 12.3327 19.7845 12.3288 19.6564C12.327 19.5735 12.325 19.4906 12.325 19.4077V17.155C12.325 17.1871 12.3268 17.2192 12.3268 17.2511C12.3419 17.7959 12.4286 18.3952 12.5963 19.008C12.7265 19.4792 12.8884 19.9147 13.0771 20.3031V20.3049C13.5711 21.3324 14.2328 22.0297 14.8415 22.1428C14.8793 22.1485 14.9187 22.1524 14.9565 22.156C15.1921 22.1824 15.4391 22.1975 15.6936 22.1975C16.6551 22.1975 17.509 21.4246 18.0462 21.1116C18.0501 21.1098 18.0537 21.1078 18.0576 21.1061C18.0858 21.0891 18.114 21.072 18.1386 21.0552C18.1461 21.0497 18.1537 21.0458 18.1614 21.0422C18.6137 20.7838 19.2661 20.6197 19.9936 20.6181H20.0088Z" fill="#4E1E30"/>
<path d="M27.6771 17.1536L27.6753 19.4063C27.6753 19.9717 27.6224 20.526 27.5245 21.0632C27.4849 21.2781 27.4396 21.4912 27.3868 21.7022L25.6468 24.2151L20.0026 25.333H20.0007L19.9989 25.3351V25.333L19.9932 20.6157H20.0084C20.736 20.6177 21.3902 20.7816 21.8425 21.0398C21.8502 21.0436 21.8557 21.0473 21.8633 21.053C21.8897 21.0698 21.9179 21.0869 21.9463 21.1038C21.9482 21.1056 21.952 21.1076 21.9557 21.1094C22.4947 21.4223 23.3468 22.1958 24.3083 22.1958C24.5628 22.1958 24.8098 22.1808 25.0454 22.1544C25.085 22.1505 25.1226 22.1469 25.1622 22.1412C25.7693 22.0281 26.4328 21.3306 26.9248 20.3032V20.3014C27.1133 19.9131 27.2754 19.4776 27.4055 19.0064C27.5751 18.3841 27.6639 17.7772 27.6751 17.2249C27.6771 17.2007 27.6771 17.178 27.6771 17.1536Z" fill="#4E1E30"/>
<path d="M19.9994 23.6374C21.0379 23.6374 21.8798 23.3771 21.8798 23.056C21.8798 22.7349 21.0379 22.4746 19.9994 22.4746C18.961 22.4746 18.1191 22.7349 18.1191 23.056C18.1191 23.3771 18.961 23.6374 19.9994 23.6374Z" fill="#F0C290"/>
<path d="M20.0009 6H19.9936C15.7577 6.00385 12.325 9.43846 12.325 13.6743V17.0583C12.325 17.0583 12.6434 15.0392 13.5014 14.059C14.4326 12.9939 14.197 11.3745 16.2858 11.3745C17.6336 11.3745 17.709 11.8721 19.9919 11.8721H19.9938H20.0011H20.0029C22.2859 11.8721 22.3613 11.3745 23.7091 11.3745C25.7979 11.3745 25.5621 12.9937 26.4935 14.059C27.3513 15.0392 27.6698 17.0583 27.6698 17.0583V13.6743C27.6696 9.43846 24.2368 6.00367 20.0009 6Z" fill="#4E1E30"/>
<path d="M25.0659 32.1815L24.8586 32.3928C23.5653 33.7104 21.8385 34.4363 19.9967 34.4363C18.1362 34.4324 16.413 33.7049 15.1255 32.3891L14.9275 32.1856C15.0256 32.1271 15.1255 32.0704 15.2254 32.0158C15.2293 32.0119 15.233 32.014 15.233 32.014V32.0119C15.314 31.9667 15.3932 31.9215 15.4724 31.8742C15.708 31.731 15.9343 31.5726 16.1453 31.3992C16.1472 31.4012 16.1472 31.4012 16.1492 31.403C17.1257 32.4021 18.4849 33.0224 19.993 33.0263H20.0083C21.5164 33.0263 22.8811 32.4041 23.8615 31.405L23.8633 31.403C23.9971 31.5143 24.1367 31.6181 24.2799 31.7142C24.2949 31.7254 24.3081 31.7347 24.3232 31.7442C24.391 31.7895 24.4609 31.8328 24.5305 31.8763C24.6077 31.9234 24.6871 31.9687 24.7661 32.0119C24.7793 32.0158 24.7889 32.0233 24.8001 32.029C24.8888 32.0781 24.9792 32.1289 25.0659 32.1815Z" fill="#CC784A"/>
</svg>
