<svg width="20" height="20" viewBox="0 0 20 20" fill="none" xmlns="http://www.w3.org/2000/svg">
<path d="M9.86759 20C15.3173 20 19.7352 15.5821 19.7352 10.1324C19.7352 4.68269 15.3173 0.264816 9.86759 0.264816C4.41787 0.264816 0 4.68269 0 10.1324C0 15.5821 4.41787 20 9.86759 20Z" fill="#FFD93B"/>
<path d="M16.2471 12.5718C15.6733 15.5756 13.0339 17.8387 9.87013 17.8387C6.7001 17.8387 4.0607 15.5756 3.49319 12.5718C3.43757 12.2818 3.70882 12.0349 3.99257 12.1155C7.90261 13.1949 11.8189 13.1887 15.7477 12.1093C16.0314 12.0349 16.3027 12.2818 16.2471 12.5718Z" fill="#3E4347"/>
<path d="M4.66397 12.2768C5.60335 14.08 7.46587 14.61 9.84464 14.61C12.2147 14.61 14.0691 14.0818 15.0122 12.2912C11.5572 13.1212 8.10713 13.1187 4.66397 12.2768Z" fill="white"/>
<path d="M19.7351 10.1324C19.7351 15.5843 15.3163 20 9.86749 20C6.76558 20 3.99618 18.5694 2.18616 16.3275C3.87931 17.6969 6.03433 18.5137 8.38122 18.5137C13.83 18.5137 18.2488 14.0981 18.2488 8.64615C18.2488 6.29925 17.4319 4.1436 16.0625 2.45109C18.3013 4.2611 19.7351 7.02988 19.7351 10.1324Z" fill="#F4C534"/>
<path d="M8.934 6.27549C8.934 8.41802 6.3946 11.078 3.79646 10.0787C2.60894 9.61615 1.74831 8.49239 1.61393 7.21738C1.49081 5.81299 2.20519 4.48485 3.43395 3.8236C5.44147 2.80421 8.934 3.88422 8.934 6.27549Z" fill="white"/>
<path d="M15.9437 10.0786C14.6712 10.568 13.3843 10.2174 12.3568 9.31176C10.7074 7.87112 9.99676 5.40673 12.158 4.08671C13.3924 3.33796 15.1306 3.22671 16.2893 3.82359C18.8831 5.2061 18.7168 8.99926 15.9437 10.0786Z" fill="white"/>
<path d="M18.9573 3.23421H18.6298C17.723 3.23421 16.8042 3.18171 15.9267 2.95921C14.3061 2.54358 12.3923 3.04109 11.3217 4.15297C10.9766 4.50422 10.491 4.6736 9.99914 4.6736H9.75351C9.25601 4.6736 8.76475 4.5036 8.41975 4.14735C7.33099 3.03546 5.40535 2.54358 3.80221 2.95921C2.93032 3.18171 2.02344 3.23421 1.12843 3.23421H0.777178C0.560926 3.23421 0.3853 3.40984 0.3853 3.63234V4.85548C0.3853 5.0136 0.490301 5.13611 0.630927 5.20673C0.812179 5.29986 0.935305 5.48736 0.935305 5.70424C0.935305 5.74986 0.92968 5.80299 0.911555 5.84986C-0.15908 9.81677 4.51034 12.9999 7.81599 9.81115C8.51225 9.12114 9.01538 8.32489 9.24351 7.42425C9.31351 7.14362 9.57726 6.96175 9.86976 6.96175C10.1566 6.96175 10.4254 7.143 10.4898 7.42425C10.7179 8.32551 11.221 9.12114 11.9173 9.81115C15.2061 12.9887 19.8924 9.84615 18.8217 5.84424C18.7517 5.58111 18.8805 5.32361 19.1024 5.20673C19.243 5.13611 19.348 5.00735 19.348 4.84985V3.63234C19.3492 3.40921 19.1736 3.23421 18.9573 3.23421ZM7.18474 9.09114C4.91472 11.098 2.15282 9.50052 1.90719 7.18362C1.79031 5.89611 2.45157 4.68548 3.5747 4.08235C5.35972 3.16921 8.64225 4.10547 8.64225 6.27674C8.64163 7.35925 7.986 8.39489 7.18474 9.09114ZM17.828 7.18362C17.5823 9.50052 14.8261 11.098 12.5498 9.09114C11.7542 8.39426 11.0985 7.35863 11.0985 6.27674C11.0985 4.10547 14.3811 3.16984 16.1542 4.08235C17.2836 4.68548 17.9448 5.89611 17.828 7.18362Z" fill="#3E4347"/>
<path d="M14.0664 8.50551C14.9045 8.50551 15.5839 7.8261 15.5839 6.988C15.5839 6.1499 14.9045 5.47048 14.0664 5.47048C13.2283 5.47048 12.5489 6.1499 12.5489 6.988C12.5489 7.8261 13.2283 8.50551 14.0664 8.50551Z" fill="#3E4347"/>
<path d="M14.8654 6.18604C14.6835 6.0042 14.4332 5.95968 14.3063 6.0866C14.1794 6.21352 14.2239 6.46382 14.4057 6.64566C14.5876 6.8275 14.8379 6.87202 14.9648 6.7451C15.0917 6.61818 15.0472 6.36788 14.8654 6.18604Z" fill="white"/>
<path d="M5.81395 8.50551C6.65205 8.50551 7.33146 7.8261 7.33146 6.988C7.33146 6.1499 6.65205 5.47048 5.81395 5.47048C4.97585 5.47048 4.29643 6.1499 4.29643 6.988C4.29643 7.8261 4.97585 8.50551 5.81395 8.50551Z" fill="#3E4347"/>
<path d="M6.61297 6.18571C6.43113 6.00387 6.18083 5.95935 6.05391 6.08627C5.92699 6.21319 5.97151 6.46349 6.15335 6.64532C6.33519 6.82716 6.58549 6.87168 6.71241 6.74476C6.83933 6.61784 6.79481 6.36754 6.61297 6.18571Z" fill="white"/>
<path d="M7.46533 1.01295C7.48971 0.935446 3.88655 1.0317 2.81591 3.03359C2.54404 3.02984 5.18219 -2.12521 7.46533 1.01295Z" fill="#3E4347"/>
<path d="M12.2694 1.01295C12.2451 0.935446 15.8482 1.0317 16.9188 3.03359C17.1907 3.02984 14.5526 -2.12521 12.2694 1.01295Z" fill="#3E4347"/>
<path d="M9.32208 15.715C7.26019 15.715 6.36893 14.5974 5.95705 15.7812C5.87768 16.0087 5.8558 16.2368 5.87455 16.4612C6.97644 17.3225 8.36145 17.8387 9.87021 17.8387C11.3784 17.8387 12.7634 17.3206 13.8665 16.4568C13.8846 16.2337 13.8621 16.0068 13.7834 15.7806C13.3715 14.5974 11.384 15.715 9.32208 15.715Z" fill="#E24B4B"/>
</svg>
