<svg width="20" height="20" viewBox="0 0 20 20" fill="none" xmlns="http://www.w3.org/2000/svg">
<path d="M10 20C15.5228 20 20 15.5228 20 10C20 4.47715 15.5228 0 10 0C4.47715 0 0 4.47715 0 10C0 15.5228 4.47715 20 10 20Z" fill="#FFD93B"/>
<path d="M20 10C20 15.525 15.5219 20 10 20C6.85625 20 4.05 18.55 2.21563 16.2781C3.93125 17.6656 6.11563 18.4938 8.49375 18.4938C14.0156 18.4938 18.4937 14.0188 18.4937 8.49376C18.4937 6.11564 17.6656 3.93126 16.2781 2.21564C18.5469 4.05001 20 6.85626 20 10Z" fill="#F4C534"/>
<path d="M8.15415 3.84437C6.81915 3.32937 5.53978 3.51625 4.73478 4.4275C5.25915 2.94687 6.68915 2.31437 8.01978 2.63562L8.15415 3.84437Z" fill="#3E4347"/>
<path d="M9.62915 8.39748C9.63478 10.3444 8.38416 11.9231 6.83603 11.9231C5.28791 11.9231 4.02916 10.345 4.02353 8.39748C4.01791 6.45061 5.26853 4.87186 6.81666 4.87186C8.36416 4.87186 9.62353 6.45061 9.62915 8.39748Z" fill="#3E4347"/>
<path d="M9.12812 8.39749C9.2575 10.0981 8.33187 11.4769 7.06062 11.4769C5.78937 11.4769 4.65375 10.0981 4.52437 8.39749C4.395 6.69686 5.32062 5.31812 6.59187 5.31812C7.86312 5.31749 8.99875 6.69624 9.12812 8.39749Z" fill="white"/>
<path d="M7.65625 10.2881C8.32141 10.2881 8.86062 9.68481 8.86062 8.94061C8.86062 8.19641 8.32141 7.59311 7.65625 7.59311C6.99109 7.59311 6.45187 8.19641 6.45187 8.94061C6.45187 9.68481 6.99109 10.2881 7.65625 10.2881Z" fill="#3E4347"/>
<path d="M8.31124 8.72561C8.17749 8.84811 7.93686 8.79499 7.76749 8.61436C7.59811 8.43436 7.56999 8.18811 7.69686 8.07124C7.83061 7.94874 8.07124 7.99561 8.23436 8.18186C8.40436 8.36249 8.43811 8.60874 8.31124 8.72561Z" fill="#5A5F63"/>
<path d="M11.845 3.84437C13.18 3.32937 14.4594 3.51625 15.2644 4.4275C14.74 2.94687 13.31 2.31437 11.9794 2.63562L11.845 3.84437Z" fill="#3E4347"/>
<path d="M10.3706 8.39751C10.365 10.3444 11.6156 11.9231 13.1637 11.9231C14.7118 11.9231 15.9706 10.345 15.9762 8.39751C15.9818 6.45064 14.7312 4.87189 13.1831 4.87189C11.6356 4.87189 10.3762 6.45064 10.3706 8.39751Z" fill="#3E4347"/>
<path d="M10.8719 8.39749C10.7425 10.0981 11.6681 11.4769 12.9394 11.4769C14.2106 11.4769 15.3462 10.0981 15.4756 8.39749C15.605 6.69686 14.6794 5.31812 13.4081 5.31812C12.1369 5.31749 11.0013 6.69624 10.8719 8.39749Z" fill="white"/>
<path d="M12.3437 10.2881C13.0089 10.2881 13.5481 9.68481 13.5481 8.94061C13.5481 8.19641 13.0089 7.59311 12.3437 7.59311C11.6786 7.59311 11.1394 8.19641 11.1394 8.94061C11.1394 9.68481 11.6786 10.2881 12.3437 10.2881Z" fill="#3E4347"/>
<path d="M11.6887 8.72561C11.8219 8.84811 12.0631 8.79499 12.2325 8.61436C12.4019 8.43436 12.4294 8.18811 12.3031 8.07124C12.17 7.94874 11.9287 7.99561 11.7656 8.18186C11.5956 8.36249 11.5619 8.60874 11.6887 8.72561Z" fill="#5A5F63"/>
<path d="M15.2506 14.4363C15.2506 14.4363 14.9556 14.0525 14.6006 13.7988C14.5631 13.7675 14.5256 13.7425 14.4819 13.7175C13.8663 15.5669 11.9475 16.2944 10.0069 16.3675C7.12875 16.2713 5.7525 14.7219 5.51938 13.7113C5.48188 13.7425 5.43813 13.7675 5.39438 13.7988C5.06188 14.0363 4.75063 14.4363 4.75063 14.4363C4.70938 14.23 4.85938 13.7981 5.21313 13.5488C5.51125 13.3206 5.96063 13.2606 6.19438 13.3425C5.98938 13.445 5.74938 13.5613 5.55688 13.6863C5.96125 14.4944 7.40438 15.69 9.98813 15.7425C12.5025 15.6981 13.9813 14.6175 14.4444 13.6925C14.1844 13.5238 14.075 13.4844 13.8069 13.3425C14.0406 13.2606 14.49 13.3206 14.7881 13.5488C15.0706 13.7475 15.2506 14.0594 15.2506 14.4363Z" fill="#3E4347"/>
<path d="M8.78187 17.2287C8.99374 17.2619 9.66187 17.5644 9.87249 17.5519C10.4287 17.5781 11.0244 17.2287 11.0244 17.2287C10.9175 17.6287 10.4794 18.0125 9.89999 17.995C9.31687 17.9706 8.86812 17.5756 8.78187 17.2287Z" fill="#F4C534"/>
</svg>
